<?xml version="1.0" encoding="UTF-8"?>
<svg id="Laag_1" xmlns="http://www.w3.org/2000/svg" version="1.1" viewBox="0 0 150 150">
  <!-- Generator: Adobe Illustrator 30.0.0, SVG Export Plug-In . SVG Version: 2.1.1 Build 123)  -->
  <g id="NgXb7J">
    <g>
      <path d="M115.05,87.2c11.28-9.11,5.11-27.1-9.34-27.94-7.28.33-14.92-.42-22.15,0-10.68.62-17.71,11.05-14.09,21.21.58,1.62,2.05,3.54-.13,4.82-2.82,1.65-4.14-2.47-4.71-4.44-3.88-13.27,5.69-25.63,19.21-26.33,7.79-.4,15.74.19,23.52.16,15.19,1.72,23.42,19.14,14.63,31.86-8.91,12.89-24.38,7.96-37.72,8.92-2.94-.3-3.33-3.72-.67-4.7,7.27-.38,14.89.39,22.12-.03,3.3-.19,6.76-1.47,9.34-3.54Z"/>
      <path d="M80.33,64.88c.86-.69,2.25-.6,3.09.1,1.35,1.14,2.61,6.33,2.73,8.14.78,12.2-7.84,21.74-19.98,22.36-8,.41-16.62-.08-24.61-.32-14.32-2.3-21.94-18.98-13.82-31.28,8.85-13.4,24.63-8.42,38.25-9.31,2.67.38,2.99,3.9.42,4.67-7.3.4-14.99-.42-22.25.03-10.66.67-17.77,11.21-13.96,21.34,5.58,14.85,24.14,8.93,36.25,10.14,9.9-.56,17.05-9.9,14.62-19.65-.4-1.6-2.03-3.92-1.36-5.39.03-.07.58-.79.63-.83Z"/>
    </g>
  </g>
</svg>