<?xml version="1.0" encoding="UTF-8"?>
<svg id="Laag_1" xmlns="http://www.w3.org/2000/svg" version="1.1" viewBox="0 0 150 150">
  <!-- Generator: Adobe Illustrator 30.0.0, SVG Export Plug-In . SVG Version: 2.1.1 Build 123)  -->
  <g id="Bk1Hvg">
    <g>
      <path d="M102.16,78.09c2.27.55,7.68-1.36,8.07,1.99.33,2.8.27,9.43,0,12.3-.34,3.76-5.46,1.65-8.07,2.24-.54,1.65-1.1,3.3-1.74,4.92-.41,1.03-1.73,2.62-1.19,3.55,1.13,1.92,5.59,3.66,4.14,6.46l-9.59,9.48c-2.77.89-4.68-3.22-6.71-4.54l-7.9,3.12c-.55,2.74,1.51,7.63-2.31,8.27-2.31.39-8.97.29-11.44.07-4.69-.41-2.48-5.06-3.03-8.34l-7.72-3.13c-2.64,1.32-4.21,6.35-7.63,3.98-1.58-1.1-6.54-6.19-7.87-7.81-3.1-3.76,1.63-5.33,3.59-8.1-.48-1.12-1.16-2.15-1.62-3.28-.33-.81-1.33-4.14-1.57-4.44-1.05-1.26-7.69,1.53-8.22-2.23-.25-1.77-.28-11.42.11-12.92.71-2.73,5.41-1.14,7.59-1.56.85-.16,1.42-3.21,1.83-4.18.54-1.3,1.33-2.5,1.88-3.8-1.48-2.17-5.47-3.89-4.51-6.93.54-1.72,7.32-6.92,8.64-8.86,3.24-2.8,5.27,2.62,7.78,3.87l7.72-3.13c.53-3-1.56-7.85,2.78-8.33,2.42-.27,9.1-.3,11.47.02,4.13.56,1.97,5.41,2.53,8.31,3.04.65,5.8,2.07,8.57,3.4l20.53-26.63c1.13-.67,1.92-.46,3,.16,1.74.99,8,5.85,9.43,7.29,1.19,1.21,1.37,1.91.62,3.51l-21.6,28.06c-.29.7,1.21,3.31,1.58,4.29s.48,1.98.88,2.9ZM109.6,33.82l-4.15,5.33,9.77,7.59,4.15-5.33-9.77-7.59ZM113.59,48.38l-9.13-6.95-.74-.1-27.09,36.01,8.78,6.93h.77s27.41-35.9,27.41-35.9ZM76.78,49.39h-11.76v6.14c0,.24-.87,1.47-1.21,1.67-1.03.61-4.13,1.39-5.58,2-1.75.74-3.15,2.45-5.11,1.17-1.19-.78-3-3.53-4.05-4.07-.31-.16-.43-.12-.66.13l-7.96,7.98c0,.31,4.03,3.7,4.45,4.43,1.01,1.75-1.09,4.39-1.78,6.09-.57,1.4-1.23,5.55-3.07,5.55h-6.01c-.37.23-.36.52-.41.9-.24,2.07-.24,7.88,0,9.95.04.38.03.67.41.9h6.27c1.31,0,2.64,5.01,3.14,6.26.64,1.58,2.43,3.66,1.44,5.38-.69,1.21-3.43,2.99-4.33,4.3l8.14,8.34c.56.1,3.59-3.63,4.4-4.16,2.03-1.32,3.28.38,5.11,1.17,1.41.6,5.6,1.73,6.26,2.62.12.16.52.95.52,1.05v6.14h11.76v-6.66c0-1.26,3.5-1.88,4.51-2.29,1.23-.5,4.99-2.56,5.82-2.56,1.8.01,3.94,3.87,5.35,4.6.31.16.43.12.66-.13l7.96-7.98c-1.15-1.56-4.73-3.77-4.72-5.75,0-1.03,1.72-3.85,2.24-5.1s1.2-5.22,2.88-5.22h6.4v-11.76h-6.4c-1.85,0-2.48-4.92-3.32-6.34-.19-.31-.34-.67-.73-.32l-6.22,8.16c4.84,22.02-24.9,34.94-37.51,16.25-10.88-16.13,3.96-37.13,22.78-31.92.94.26,3.64,1.63,4.23,1.25l5.23-7.19c-1.28-.42-2.42-1.2-3.66-1.7-1.06-.43-5.48-1.38-5.48-2.62v-6.66ZM89.06,89.23c.17-1.33-.12-2.94,0-4.31l-2.26,2.57-15.5,8.02c-.96.43-1.67-.37-1.76-1.27l3.93-17.21,5.41-7.13c-17.84-8.72-35.08,13.53-21.82,28.61,10.16,11.56,30.12,5.67,32.01-9.28ZM72.6,91.98l11.23-5.88-8.61-6.4-2.61,12.28Z"/>
      <path d="M103.09,54.4c.97-.29,1.75.33,1.78,1.28l-17.57,22.67c-.62.27-1.62-.53-1.64-1.13,5.14-7.75,11.35-14.81,16.83-22.35.16-.19.35-.39.59-.47Z"/>
    </g>
  </g>
</svg>