<?xml version="1.0" encoding="UTF-8"?>
<svg id="Laag_1" xmlns="http://www.w3.org/2000/svg" version="1.1" viewBox="0 0 600 600">
  <!-- Generator: Adobe Illustrator 30.0.0, SVG Export Plug-In . SVG Version: 2.1.1 Build 123)  -->
  <defs>
    <style>
      .st0 {
        fill: #cea767;
      }

      .st1 {
        fill: #ecdaa5;
      }

      .st2 {
        fill: #cfb490;
      }
    </style>
  </defs>
  <g>
    <path class="st1" d="M121.63,483.82c1.23-4.33,2.47-8.66,3.7-12.98,20.2,6.35,40.72,12.14,61.65,16.83,20.92,4.74,42.3,8.16,64,9.87,15.88,1.22,31.91,1.46,47.93.46,4-.33,8.01-.59,12.01-.99l11.98-1.5c7.94-1.34,15.86-2.65,23.72-4.37,31.5-6.83,62.15-18.29,90.25-34.72,13.98-8.33,27.34-17.98,38.91-29.89,1.41-1.53,2.87-3,4.21-4.6l2.04-2.37,1.95-2.46c.66-.81,1.28-1.66,1.89-2.52.61-.86,1.23-1.7,1.83-2.57,1.13-1.79,2.34-3.52,3.35-5.4,2.17-3.65,3.94-7.58,5.43-11.63,1.5-4.05,2.46-8.33,3.09-12.66.19-2.18.47-4.36.4-6.57.08-2.2-.15-4.39-.33-6.58-.58-4.34-1.48-8.67-3.02-12.72-1.39-4.12-3.36-7.95-5.52-11.79-2.46-3.49-4.89-7.07-7.7-10.15-1.36-1.59-2.7-3.22-4.22-4.65-1.48-1.47-2.93-2.99-4.45-4.41l-4.7-4.1c-.39-.34-.78-.69-1.18-1.02l-1.23-.95-2.46-1.89-2.46-1.89c-.84-.6-1.7-1.17-2.54-1.76-1.71-1.15-3.38-2.36-5.12-3.45l-5.24-3.22c-1.74-1.09-3.56-2.01-5.33-3.03-16.22-8.96-33.36-15.63-50.47-21.74-4.27-1.52-8.58-3.01-12.88-4.5-4.38-1.42-8.73-2.8-13.1-4.09-4.37-1.32-8.76-2.55-13.15-3.77-3.85-1.04-7.6-2.03-11.39-2.95-15.15-3.76-30.45-6.66-45.8-8.97-7.67-1.18-15.37-2.17-23.06-3.07l-11.53-1.38-5.76-.75-2.87-.4c-.48-.06-.96-.15-1.43-.26-.45-.13-.98-.21-1.29-.59-.13-.25.15-.45.33-.57.2-.13.43-.23.65-.33.45-.19.92-.34,1.38-.49.93-.29,1.88-.53,2.82-.78l5.65-1.53,11.3-3.04c7.5-2.12,14.92-4.53,22.19-7.3,7.27-2.78,14.39-5.93,21.23-9.6,6.83-3.67,13.4-7.88,19.36-12.84.75-.57,1.52-1.31,2.29-2.01l2.31-2.11c.37-.32.79-.77,1.21-1.21l1.25-1.31,2.5-2.63c1.53-1.89,3.11-3.75,4.57-5.68,1.45-1.93,2.79-3.99,4.07-6.09,1.26-2.12,2.41-4.33,3.46-6.61,1.01-2.3,1.89-4.69,2.6-7.14.68-2.47,1.19-5.01,1.49-7.58.27-2.58.32-5.19.18-7.78-.14-1.34-.2-2.7-.51-3.99l-.39-1.96-.5-1.88c-.66-2.51-1.63-4.92-2.69-7.27-2.24-4.66-5.23-8.91-8.67-12.6-6.97-7.35-15.48-12.57-24.3-16.37-8.85-3.82-18.1-6.28-27.48-7.73-4.69-.72-9.43-1.2-14.2-1.29l-3.58-.04c-1.19,0-2.38-.06-3.58.04l-3.58.19c-1.19.08-2.39.08-3.57.26-9.52.92-18.95,3.14-27.89,6.7-8.94,3.56-17.36,8.47-24.84,14.57-7.48,6.09-13.99,13.36-19.27,21.39l-1.92,3.05c-.64,1.02-1.29,2.03-1.82,3.1-1.1,2.11-2.27,4.21-3.3,6.32-2.08,4.18-3.91,8.56-5.6,12.93-6.58,17.59-10.2,35.8-13.06,53.81-5.64,35.86-10.27,71.9-13.73,108.03-3.4,36.14-5.7,72.37-6.71,108.63-.48,17.3-.79,34.64-.74,51.94-7.52.03-15.05.08-22.57.05-.19-13.05.02-26.25.3-39.4,1.43-77.39,8.77-155.13,21.08-231.98,1.58-9.87,3.41-19.98,5.86-30.3,1.24-5.16,2.58-10.36,4.21-15.61,1.6-5.24,3.4-10.52,5.54-15.81,1.01-2.64,2.23-5.29,3.38-7.93,1.24-2.55,2.35-4.99,3.84-7.72,1.44-2.67,2.75-5.33,4.5-7.97,1.67-2.64,3.29-5.31,5.23-7.8,7.39-10.15,16.53-19.21,26.87-26.5,10.33-7.31,21.82-12.86,33.72-16.49,11.9-3.64,24.2-5.33,36.3-5.41,3.02.06,6.05.03,9.04.22,3,.17,5.97.47,8.93.82,5.9.75,11.73,1.85,17.53,3.31,11.58,3.01,23.15,7.36,34.47,14.54,5.64,3.56,11.19,7.99,16.3,13.36,5.09,5.4,9.71,11.91,13.04,19.26.81,1.85,1.61,3.71,2.25,5.63.7,1.9,1.24,3.85,1.74,5.8.26.94.49,2.04.7,3.12.21,1.08.41,2.16.59,3.26.13,1.13.24,2.27.34,3.41l.07.85.03.77.05,1.53c.27,8.2-1.18,16.37-3.63,23.58-1.24,3.6-2.71,6.99-4.32,10.17-1.62,3.17-3.39,6.1-5.22,8.89-.93,1.38-1.86,2.73-2.81,3.99-.91,1.3-2.01,2.54-3.02,3.81-1.03,1.25-2.06,2.53-3.12,3.74l-3.28,3.44-1.65,1.71-.41.43c-.13.13-.16.14-.24.22l-.42.38-1.69,1.51-.42.38-.21.19-.12.1-.47.36-.94.72c-.64.46-1.31.91-1.97,1.35-.68.41-1.36.85-2.06,1.25-5.62,3.21-11.96,5.56-18.65,7.48-3.36.95-6.82,1.76-10.31,2.7-.22.06-.43.13-.64.22-.1.04-.21.09-.3.16-.11.05-.14.2-.04.26.33.21.73.24,1.1.31l2.29.37,4.66.67c6.27.86,12.76,1.97,19.45,3.46,3.35.75,6.74,1.61,10.18,2.57l7.71,2.22c4.78,1.38,9.54,2.82,14.27,4.33l3.55,1.14,3.64,1.2c2.48.8,4.74,1.64,7.08,2.46,4.67,1.68,9.17,3.28,13.82,5.05,9.23,3.47,18.56,7.19,27.88,11.45,9.32,4.29,18.64,9.1,27.76,14.78,9.11,5.69,18.04,12.26,26.29,20.13,2.12,2.15,4.25,4.3,6.33,6.5,1.99,2.34,3.97,4.69,5.92,7.05,1.93,2.64,3.83,5.34,5.69,8.04.9,1.44,1.74,3.1,2.58,4.65.41.79.85,1.58,1.23,2.37l1.03,2.33c5.7,12.21,8.15,27.43,5.98,41.54-1.02,7.07-3.14,13.72-5.8,19.82-2.68,6.1-5.93,11.65-9.48,16.74-3.55,5.08-7.44,9.64-11.45,13.92-4.02,4.28-8.21,8.18-12.52,11.82-8.59,7.32-17.6,13.59-26.84,19.26-4.63,2.82-9.32,5.48-14.07,8-4.78,2.52-9.49,4.81-14.3,7.06-9.61,4.45-19.43,8.39-29.37,11.87-9.96,3.44-20.04,6.46-30.23,8.95-5.09,1.25-10.2,2.39-15.34,3.4-2.57.52-5.04.95-7.58,1.41l-7.74,1.27-3.86.63-1.93.31-1.96.24-7.83.91-3.91.45c-1.3.15-2.61.2-3.91.31l-7.82.55c-2.61.22-5.21.27-7.81.34l-7.8.21c-5.19.04-10.37-.11-15.54-.17-5.15-.29-10.31-.48-15.43-.87l-7.67-.68c-2.55-.22-5.11-.44-7.64-.78-40.66-4.67-79.56-14.87-117.05-26.71Z"/>
    <g>
      <path class="st1" d="M119.08,492.77c.52-2.17,1.24-4.29,1.83-6.44,12.71,4,25.55,7.81,38.56,11.33,13.04,3.44,26.23,6.63,39.63,9.32,13.42,2.61,27,4.87,40.79,6.4,3.44.42,6.92.66,10.38.99l5.2.46,5.24.29,5.24.28c1.75.09,3.49.21,5.25.22l10.55.17c1.76.05,3.52-.02,5.29-.06l5.3-.13,5.3-.14,5.31-.35,5.32-.37c1.77-.14,3.55-.21,5.32-.44l10.64-1.22c1.78-.17,3.53-.47,5.28-.76l5.25-.85,5.25-.86,5.12-.93c6.92-1.31,13.91-2.84,20.8-4.59,13.82-3.47,27.45-7.89,40.81-13.13,6.68-2.62,13.28-5.49,19.79-8.58,6.47-3.07,13-6.41,19.39-10.06,12.76-7.31,25.13-15.7,36.8-26.09,5.82-5.21,11.45-10.94,16.68-17.46,5.2-6.54,10.09-13.82,13.88-22.34,3.8-8.45,6.49-18.11,7.12-28.25.61-10.14-1.02-20.47-4.23-29.65-.41-1.14-.78-2.33-1.23-3.43l-1.41-3.28c-.5-1.1-.92-2.16-1.5-3.28l-1.77-3.33-.91-1.66c-.31-.53-.6-1.15-.93-1.59l-1.96-2.83c-1.31-1.87-2.65-3.77-4-5.59l-4.09-4.9-2.07-2.44-2.18-2.25-4.4-4.48c-1.51-1.4-3.05-2.75-4.58-4.12-12.33-10.89-25.73-18.94-39.04-25.8-13.35-6.86-26.75-12.24-39.89-17.18-3.3-1.26-6.53-2.4-9.8-3.6l-4.95-1.77c-1.66-.59-3.28-1.18-5.05-1.75-3.53-1.18-6.86-2.24-10.23-3.3-3.38-1.06-6.77-2.07-10.16-3.07l-9.78-2.83c-1.88-.53-3.74-1.01-5.58-1.45-4.11-.98-8.09-1.75-11.92-2.39-1.92-.32-3.81-.59-5.65-.86l-2.74-.43c-.45-.08-.9-.14-1.35-.25-.11-.03-.22-.06-.32-.12-.04-.03-.11-.08-.07-.15.03-.06.1-.1.16-.13.25-.13.52-.2.79-.28l6.38-1.63c2.08-.55,4.11-1.16,6.08-1.82,3.92-1.34,7.63-2.89,10.9-4.9.42-.24.81-.5,1.2-.77.4-.26.79-.53,1.15-.82l.56-.42.14-.1.07-.05.15-.14.62-.55,1.24-1.1.62-.55s.34-.34.55-.55l.67-.69c1.78-1.87,3.59-3.65,5.3-5.64,1.69-2.03,3.39-4.07,5-6.15,3.08-4.11,6.12-8.76,8.77-13.93,2.65-5.18,4.93-11.01,6.45-17.33,1.52-6.32,2.17-13.18,1.81-19.93-.11-1.77-.29-3.79-.55-5.6-.31-1.79-.65-3.65-1.05-5.36-.42-1.61-.83-3.24-1.33-4.83-.54-1.58-1.06-3.17-1.67-4.72-2.46-6.23-5.81-12.01-9.65-17.06-3.84-5.06-8.14-9.41-12.57-13.13-4.45-3.72-9.04-6.84-13.66-9.52-9.25-5.33-18.59-8.97-27.92-11.64-9.35-2.65-18.7-4.3-28.34-5.08-9.67-.62-19.5-.62-29.34.86-9.83,1.39-19.62,3.89-29.07,7.58-9.47,3.64-18.5,8.69-26.8,14.73-8.3,6.06-15.86,13.17-22.35,21.1-1.59,2-3.1,4.06-4.62,6.11l-1.14,1.54-1.04,1.59-2.05,3.21-2.02,3.22-1.75,3.22-1.73,3.23-.86,1.62-.75,1.53c-.99,2.03-1.98,4.03-2.91,6.19l-1.4,3.19-1.28,3.19c-1.72,4.25-3.19,8.48-4.57,12.7-2.74,8.43-4.84,16.73-6.64,24.88-1.79,8.15-3.25,16.15-4.54,23.98l-1.82,11.47-1.77,11.33c-9.33,60.83-15.52,122.29-18.29,183.83l-2.61-.1c1.61-38.22,4.27-76.41,8.36-114.49,2.52-23.33,5.53-46.67,8.98-69.84l2.61-17.25c.91-5.91,1.9-11.96,3.03-18.1,2.26-12.28,5.11-25.03,9.36-38.12,2.13-6.54,4.59-13.16,7.62-19.81.73-1.66,1.51-3.18,2.26-4.78.71-1.52,1.68-3.3,2.55-4.97.9-1.69,1.79-3.37,2.73-5.06l3.18-5.07,1.61-2.52c.53-.84,1.17-1.63,1.75-2.45l3.6-4.83c.59-.81,1.25-1.57,1.91-2.34l1.98-2.29,2-2.28,1-1.13,1.07-1.08c2.88-2.85,5.7-5.76,8.86-8.31,1.56-1.3,3.08-2.64,4.69-3.87l4.92-3.57c.83-.58,1.63-1.2,2.49-1.73l2.57-1.6c1.72-1.05,3.44-2.13,5.19-3.13l5.36-2.78,2.7-1.36,2.76-1.19,5.54-2.33c1.87-.68,3.76-1.32,5.64-1.96l2.83-.95c.95-.31,1.9-.53,2.86-.8l5.74-1.51c15.37-3.57,31.03-4.23,46.09-2.76,7.51.78,14.87,2.11,22.23,4.01,3.68.95,7.35,2.08,11.03,3.34,3.68,1.29,7.36,2.76,11.05,4.42,3.69,1.7,7.38,3.59,11.05,5.76,3.68,2.2,7.34,4.67,10.95,7.48,3.6,2.86,7.14,6.06,10.49,9.69,3.36,3.63,6.51,7.75,9.29,12.24,2.8,4.47,5.16,9.44,6.96,14.56.94,2.55,1.63,5.18,2.31,7.81.62,2.95,1.23,5.83,1.46,9.01.07.76.15,1.61.18,2.29l.08,2.07c.06,1.38.05,2.76,0,4.13-.02,1.38-.09,2.75-.22,4.12-.11,1.37-.24,2.73-.45,4.07-.74,5.38-2.06,10.54-3.75,15.29-3.39,9.54-8.15,17.47-13.04,24.11-1.2,1.67-2.6,3.3-3.91,4.94l-2.02,2.44c-.67.83-1.39,1.51-2.08,2.27l-4.25,4.42c-.1.1-.18.18-.19.19l-.1.09-.21.19-.41.37-.83.74-.81.72-.21.16-.43.31c-.3.19-.59.4-.91.58-.62.38-1.29.71-1.97,1.04-1.38.63-2.86,1.19-4.44,1.67-1.57.5-3.25.88-4.99,1.32l-.66.16c-.11.03-.22.06-.32.1-.09.02-.27.13-.14.19.31.13.65.15.99.23l2.06.35c2.81.46,5.85,1.07,9.16,1.99.83.23,1.67.48,2.53.75l1.54.48,3.93,1.12,4.39,1.28c2.93.85,5.84,1.76,8.75,2.66l4.36,1.38,4.5,1.47c5.95,2,11.47,4.03,17.09,6.05,11.26,4.12,22.8,8.65,34.42,14.05,11.61,5.41,23.34,11.69,34.78,19.61,11.41,7.91,22.6,17.57,32.14,29.57.3.38.6.71.91,1.12l.92,1.26,1.81,2.53c1.2,1.69,2.38,3.4,3.55,5.11,1.14,1.99,2.24,4.03,3.31,6.07.26.51.55,1.03.78,1.52l.67,1.48,1.31,2.97c3.37,8.01,5.76,17.02,6.47,26.34.74,9.31-.24,18.79-2.55,27.41-2.3,8.65-5.81,16.46-9.85,23.38-4.05,6.93-8.64,13.03-13.43,18.54-4.81,5.51-9.84,10.43-15,14.96-10.33,9.02-21.11,16.5-32.16,23.14-5.52,3.31-11.15,6.4-16.82,9.27-5.59,2.82-11.27,5.48-17,8-22.94,10-46.83,17.31-71.07,22.06-3,.56-5.82,1.12-8.92,1.61l-9.14,1.51c-3.02.56-6.15.83-9.23,1.22-3.09.34-6.18.76-9.27,1.03l-9.27.66c-1.54.1-3.09.23-4.63.3l-4.62.13-9.23.25-9.19-.11-4.95-.07-4.92-.24c-3.27-.17-6.55-.35-9.82-.52-3.25-.29-6.49-.57-9.73-.86-1.62-.15-3.24-.27-4.85-.45l-4.82-.59c-12.87-1.43-25.48-3.67-37.98-6.07-6.21-1.31-12.44-2.55-18.57-4.04-6.17-1.39-12.25-2.96-18.35-4.52-12.14-3.21-24.18-6.6-36.08-10.25-1.84-.56-3.63-1.09-5.52-1.59Z"/>
      <path class="st0" d="M123.71,437.3c2.77-61.54,8.96-123,18.29-183.83l1.77-11.33,1.82-11.47c1.29-7.82,2.75-15.83,4.54-23.98,1.8-8.15,3.9-16.45,6.64-24.88,1.38-4.22,2.85-8.44,4.57-12.7l1.28-3.19,1.4-3.19c.93-2.17,1.92-4.17,2.91-6.19l.75-1.53.86-1.62,1.73-3.23,1.75-3.22,2.02-3.22,2.05-3.21,1.04-1.59,1.14-1.54c1.53-2.05,3.04-4.1,4.62-6.11,6.49-7.93,14.05-15.05,22.35-21.1,8.3-6.04,17.34-11.09,26.8-14.73,9.45-3.69,19.24-6.19,29.07-7.58,9.84-1.48,19.68-1.48,29.34-.86,9.63.77,18.99,2.43,28.34,5.08,9.33,2.67,18.67,6.31,27.92,11.64,4.62,2.67,9.21,5.79,13.66,9.52,4.44,3.72,8.74,8.07,12.57,13.13,3.84,5.05,7.19,10.83,9.65,17.06.62,1.55,1.14,3.14,1.67,4.72.5,1.59.91,3.21,1.33,4.83.4,1.71.74,3.57,1.05,5.36.26,1.82.44,3.83.55,5.6.36,6.75-.29,13.61-1.81,19.93-1.52,6.32-3.8,12.15-6.45,17.33-2.65,5.17-5.69,9.81-8.77,13.93-1.62,2.07-3.32,4.12-5,6.15-1.71,1.99-3.52,3.77-5.3,5.64l-.67.69c-.21.21-.5.52-.55.55l-.62.55-1.24,1.1-.62.55-.15.14-.07.05-.14.1-.56.42c-.37.29-.76.56-1.15.82-.39.27-.79.53-1.2.77-3.27,2.01-6.97,3.56-10.9,4.9-1.96.67-3.99,1.27-6.08,1.82l-6.38,1.63c-.27.08-.54.15-.79.28-.06.03-.12.07-.16.13-.03.07.03.12.07.15.1.06.21.09.32.12.44.1.9.17,1.35.25l2.74.43c1.85.28,3.73.54,5.65.86,3.84.64,7.82,1.41,11.92,2.39,1.83.44,3.69.92,5.58,1.45l9.78,2.83c3.39,1,6.78,2.02,10.16,3.07,3.38,1.06,6.7,2.12,10.23,3.3,1.78.57,3.4,1.17,5.05,1.75l4.95,1.77c3.27,1.2,6.5,2.34,9.8,3.6,13.14,4.94,26.54,10.33,39.89,17.18,13.31,6.86,26.71,14.91,39.04,25.8,1.53,1.37,3.07,2.72,4.58,4.12l4.4,4.48,2.18,2.25,2.07,2.44,4.09,4.9c1.35,1.81,2.68,3.72,4,5.59l1.96,2.83c.33.44.62,1.06.93,1.59l.91,1.66,1.77,3.33c.58,1.12,1,2.18,1.5,3.28l1.41,3.28c.45,1.11.83,2.29,1.23,3.43,3.2,9.18,4.83,19.51,4.23,29.65-.63,10.14-3.32,19.79-7.12,28.25-3.79,8.51-8.68,15.8-13.88,22.34-5.23,6.52-10.86,12.25-16.68,17.46-11.66,10.38-24.03,18.78-36.8,26.09-6.39,3.66-12.92,7-19.39,10.06-6.51,3.09-13.11,5.96-19.79,8.58-13.36,5.25-26.99,9.67-40.81,13.13-6.89,1.74-13.89,3.28-20.8,4.59l-5.12.93-5.25.86-5.25.85c-1.75.29-3.49.58-5.28.76l-10.64,1.22c-1.77.23-3.55.3-5.32.44l-5.32.37-5.31.35-5.3.14-5.3.13c-1.77.04-3.53.11-5.29.06l-10.55-.17c-1.76,0-3.5-.13-5.25-.22l-5.24-.28-5.24-.29-5.2-.46c-3.46-.33-6.94-.57-10.38-.99-13.79-1.53-27.37-3.79-40.79-6.4-13.4-2.69-26.59-5.88-39.63-9.32-13.01-3.52-25.85-7.33-38.56-11.33l.72-2.51c37.49,11.84,76.39,22.04,117.05,26.71,2.53.34,5.08.56,7.64.78l7.67.68c5.12.39,10.28.58,15.43.87,5.17.06,10.35.21,15.54.17l7.8-.21c2.6-.07,5.21-.12,7.81-.34l7.82-.55c1.3-.1,2.61-.16,3.91-.31l3.91-.45,7.83-.91,1.96-.24,1.93-.31,3.86-.63,7.74-1.27c2.54-.47,5.01-.89,7.58-1.41,5.13-1.01,10.24-2.15,15.34-3.4,10.19-2.49,20.27-5.51,30.23-8.95,9.94-3.49,19.76-7.43,29.37-11.87,4.82-2.25,9.52-4.54,14.3-7.06,4.75-2.52,9.44-5.18,14.07-8,9.24-5.67,18.25-11.94,26.84-19.26,4.3-3.64,8.5-7.54,12.52-11.82,4.01-4.27,7.9-8.83,11.45-13.92,3.55-5.09,6.8-10.64,9.48-16.74,2.66-6.09,4.79-12.75,5.8-19.82,2.17-14.11-.27-29.33-5.98-41.54l-1.03-2.33c-.39-.79-.82-1.58-1.23-2.37-.85-1.55-1.68-3.21-2.58-4.65-1.86-2.7-3.75-5.4-5.69-8.04-1.96-2.36-3.93-4.72-5.92-7.05-2.08-2.2-4.21-4.34-6.33-6.5-8.25-7.87-17.19-14.45-26.29-20.13-9.12-5.68-18.44-10.5-27.76-14.78-9.32-4.26-18.65-7.97-27.88-11.45-4.65-1.77-9.14-3.37-13.82-5.05-2.34-.82-4.59-1.67-7.08-2.46l-3.64-1.2-3.55-1.14c-4.74-1.51-9.49-2.95-14.27-4.33l-7.71-2.22c-3.44-.96-6.84-1.82-10.18-2.57-6.69-1.49-13.18-2.6-19.45-3.46l-4.66-.67-2.29-.37c-.37-.07-.77-.1-1.1-.31-.1-.05-.07-.2.04-.26.09-.07.19-.12.3-.16.21-.09.43-.16.64-.22,3.49-.95,6.96-1.76,10.31-2.7,6.69-1.93,13.03-4.27,18.65-7.48.7-.4,1.38-.84,2.06-1.25.66-.45,1.32-.89,1.97-1.35l.94-.72.47-.36.12-.1.21-.19.42-.38,1.69-1.51.42-.38c.08-.08.11-.09.24-.22l.41-.43,1.65-1.71,3.28-3.44c1.06-1.21,2.09-2.49,3.12-3.74,1.01-1.26,2.1-2.51,3.02-3.81.95-1.26,1.88-2.62,2.81-3.99,1.84-2.78,3.61-5.71,5.22-8.89,1.61-3.18,3.08-6.57,4.32-10.17,2.45-7.22,3.9-15.38,3.63-23.58l-.05-1.53-.03-.77-.07-.85c-.1-1.14-.21-2.28-.34-3.41-.18-1.09-.38-2.17-.59-3.26-.21-1.08-.43-2.19-.7-3.12-.5-1.96-1.05-3.9-1.74-5.8-.63-1.92-1.44-3.78-2.25-5.63-3.34-7.35-7.96-13.87-13.04-19.26-5.11-5.37-10.66-9.8-16.3-13.36-11.32-7.18-22.89-11.54-34.47-14.54-5.8-1.47-11.63-2.56-17.53-3.31-2.96-.35-5.92-.66-8.93-.82-3-.2-6.03-.16-9.04-.22-12.1.07-24.39,1.77-36.3,5.41-11.89,3.63-23.38,9.18-33.72,16.49-10.34,7.29-19.48,16.35-26.87,26.5-1.94,2.49-3.55,5.16-5.23,7.8-1.76,2.65-3.06,5.3-4.5,7.97-1.49,2.73-2.6,5.17-3.84,7.72-1.15,2.64-2.37,5.29-3.38,7.93-2.14,5.29-3.93,10.57-5.54,15.81-1.63,5.25-2.96,10.45-4.21,15.61-2.45,10.32-4.27,20.43-5.86,30.3-12.31,76.84-19.65,154.59-21.08,231.98-.28,13.15-.49,26.35-.3,39.4-1.96,0-3.93.06-5.9.01.08-15.39.3-30.77.79-46.14.36-6.35.47-13.02.72-19.5Z"/>
      <path class="st0" d="M119.36,502.95c-.79-.04-1.95.9-2.67.01-.36-.44-.06-3.9-.04-6.22.03-3.26.05-6.53.08-9.8.06-3.27.12-6.53.18-9.79.1-6.52.31-13.03.49-19.51.78-26.44,2.26-52.86,4.29-79.23,2.03-26.37,4.67-52.7,7.93-78.94l1.23-9.84,1.31-9.83c.85-6.56,1.82-13.09,2.75-19.64.93-6.55,1.96-12.97,2.94-19.47l1.52-9.83c.54-3.37,1.11-6.77,1.72-10.22,2.46-13.78,5.56-28.17,10.48-43.05l.93-2.79,1.01-2.81,1.02-2.81,1.12-2.82,1.13-2.82,1.23-2.83,1.25-2.83,1.29-2.7,1.3-2.69,1.51-2.88,3.1-5.77c1.18-1.94,2.41-3.87,3.63-5.79.62-.96,1.22-1.93,1.86-2.87l2.04-2.78c5.31-7.48,11.72-14.27,18.62-20.44,1.76-1.51,3.54-3,5.32-4.48,1.84-1.41,3.73-2.75,5.61-4.11.95-.66,1.87-1.37,2.85-1.98l2.94-1.83,2.96-1.81c.99-.6,1.98-1.2,3-1.71,2.04-1.07,4.08-2.12,6.14-3.16,2.06-1.03,4.18-1.86,6.28-2.77l3.17-1.32c1.07-.4,2.14-.76,3.22-1.14,2.15-.73,4.3-1.5,6.47-2.15,4.36-1.18,8.72-2.41,13.13-3.15,4.4-.94,8.81-1.39,13.23-1.9,2.21-.22,4.4-.28,6.61-.41l3.3-.16c1.1-.03,2.19,0,3.28,0l6.55.11c2.17.11,4.34.25,6.49.45,8.59.79,16.96,2.24,25.35,4.47,8.38,2.21,16.77,5.22,25.21,9.35,8.42,4.22,16.96,9.52,25.03,17.08,4.02,3.77,7.89,8.07,11.37,12.96,3.47,4.88,6.55,10.35,8.88,16.21,1.15,2.92,2.18,5.9,2.96,8.95l.59,2.29.53,2.56c.33,1.72.67,3.39.83,5.23l.26,2.72.05.68.03.6.05,1.2c.07,1.6.1,3.19.04,4.79l-.08,2.39-.18,2.37c-.12,1.59-.32,3.15-.55,4.7-.92,6.21-2.57,12.09-4.65,17.43-2.08,5.35-4.58,10.17-7.23,14.53-.67,1.07-1.34,2.15-2.03,3.19-.69,1.01-1.38,2.05-2.08,3.03-.7.96-1.37,1.91-2.1,2.86l-2.27,2.82c-1.53,1.85-3.04,3.81-4.67,5.45l-2.42,2.54-2.34,2.41-1.74,1.56-.43.39s-.05.04-.08.06l-.12.09c-.16.12-.34.23-.52.34-.37.21-.76.41-1.17.6-.83.37-1.75.68-2.76.97-.5.14-1.02.27-1.57.4l-.83.2-.42.1-.21.06c-.05.01-.18.07-.12.11.72.21,1.51.32,2.35.5,1.7.35,3.63.84,5.9,1.63l.67.21,4.64,1.31c3.3.95,6.6,1.92,9.89,2.93,1.65.5,3.29,1.01,4.92,1.53l5.01,1.6c3.51,1.12,6.64,2.25,9.86,3.38,12.57,4.44,25.49,9.25,38.62,15.05,3.27,1.39,6.58,3.02,9.87,4.56,1.64.75,3.3,1.64,4.96,2.48l4.96,2.55,4.96,2.78c1.65.94,3.3,1.82,4.95,2.88,3.3,2.06,6.59,4.01,9.85,6.35l4.89,3.41,4.82,3.74c3.23,2.4,6.33,5.31,9.45,8.05.39.35.78.69,1.16,1.05l1.13,1.13,2.25,2.28,2.24,2.29c.74.77,1.5,1.51,2.2,2.36l4.24,5c.7.86,1.39,1.62,2.1,2.57l2.11,2.91c1.4,1.95,2.77,3.92,4.12,5.89,1.33,2.27,2.62,4.67,3.86,7.04,1.15,2.33,2.1,4.59,3.1,6.91.95,2.35,1.76,4.85,2.59,7.28,3.14,9.95,4.45,21.16,3.53,31.94-.87,10.81-3.85,21-7.87,29.86-4.04,8.89-9.06,16.5-14.38,23.27-5.34,6.76-11.03,12.65-16.87,18-5.84,5.34-11.85,10.13-17.95,14.53-6.11,4.4-12.31,8.43-18.62,12.16-3.15,1.88-6.33,3.66-9.54,5.39-3.21,1.74-6.44,3.38-9.61,4.94-25.56,12.62-52.56,21.74-80.03,27.62l-5.16,1.06-5.02.95c-1.64.32-3.41.6-5.13.89l-5.19.86-5.19.86c-1.74.27-3.51.44-5.27.66-3.52.41-7.04.85-10.56,1.22-7.03.49-14.07,1.15-21.07,1.23l-5.25.15-2.62.06-2.61-.03-10.45-.13c-3.36-.08-6.7-.31-10.04-.46l-5.01-.26c-1.67-.1-3.32-.27-4.97-.41l-9.93-.87-9.83-1.18c-1.64-.21-3.28-.38-4.9-.61l-4.86-.73c-3.24-.5-6.49-.95-9.71-1.51-6.41-1.17-12.85-2.25-19.16-3.63-25.4-5.19-49.95-12.08-74.05-19.48.27-1.14.68-2.24.96-3.38,1.9.5,3.68,1.03,5.52,1.59,11.9,3.66,23.95,7.05,36.08,10.25,6.09,1.55,12.18,3.13,18.35,4.52,6.13,1.49,12.36,2.73,18.57,4.04,12.5,2.4,25.11,4.64,37.98,6.07l4.82.59c1.61.18,3.23.3,4.85.45,3.24.29,6.48.57,9.73.86,3.27.17,6.54.35,9.82.52l4.92.24,4.95.07,9.19.11,9.23-.25,4.62-.13c1.54-.07,3.09-.2,4.63-.3l9.27-.66c3.09-.26,6.18-.69,9.27-1.03,3.08-.38,6.21-.66,9.23-1.22l9.14-1.51c3.1-.49,5.92-1.05,8.92-1.61,24.24-4.74,48.13-12.05,71.07-22.06,5.72-2.52,11.41-5.18,17-8,5.67-2.87,11.3-5.96,16.82-9.27,11.05-6.64,21.83-14.11,32.16-23.14,5.15-4.53,10.19-9.46,15-14.96,4.8-5.51,9.38-11.6,13.43-18.54,4.04-6.92,7.56-14.73,9.85-23.38,2.31-8.62,3.29-18.09,2.55-27.41-.71-9.32-3.1-18.33-6.47-26.34l-1.31-2.97-.67-1.48c-.22-.49-.52-1.02-.78-1.52-1.07-2.04-2.18-4.08-3.31-6.07-1.17-1.71-2.35-3.41-3.55-5.11l-1.81-2.53-.92-1.26c-.31-.42-.61-.75-.91-1.12-9.55-12-20.74-21.66-32.14-29.57-11.44-7.92-23.17-14.2-34.78-19.61-11.62-5.4-23.16-9.92-34.42-14.05-5.61-2.02-11.13-4.06-17.09-6.05l-4.5-1.47-4.36-1.38c-2.91-.9-5.82-1.8-8.75-2.66l-4.39-1.28-3.93-1.12-1.54-.48c-.86-.27-1.71-.52-2.53-.75-3.31-.92-6.36-1.53-9.16-1.99l-2.06-.35c-.33-.08-.67-.09-.99-.23-.12-.06.05-.17.14-.19.11-.04.22-.07.32-.1l.66-.16c1.74-.44,3.42-.83,4.99-1.32,1.58-.48,3.06-1.04,4.44-1.67.68-.33,1.35-.66,1.97-1.04.32-.18.61-.39.91-.58l.43-.31.21-.16.81-.72.83-.74.41-.37.21-.19.1-.09s.09-.09.19-.19l4.25-4.42c.7-.76,1.42-1.45,2.08-2.27l2.02-2.44c1.31-1.63,2.71-3.27,3.91-4.94,4.89-6.64,9.65-14.57,13.04-24.11,1.69-4.76,3.01-9.91,3.75-15.29.2-1.34.34-2.7.45-4.07.13-1.36.2-2.74.22-4.12.05-1.38.05-2.76,0-4.13l-.08-2.07c-.03-.68-.11-1.53-.18-2.29-.24-3.18-.84-6.06-1.46-9.01-.67-2.63-1.37-5.26-2.31-7.81-1.8-5.12-4.16-10.09-6.96-14.56-2.79-4.49-5.94-8.61-9.29-12.24-3.36-3.62-6.89-6.83-10.49-9.69-3.6-2.81-7.27-5.27-10.95-7.48-3.68-2.17-7.36-4.06-11.05-5.76-3.68-1.66-7.37-3.13-11.05-4.42-3.68-1.26-7.35-2.39-11.03-3.34-7.36-1.9-14.72-3.23-22.23-4.01-15.06-1.48-30.73-.82-46.09,2.76l-5.74,1.51c-.95.27-1.91.5-2.86.8l-2.83.95c-1.88.64-3.77,1.29-5.64,1.96l-5.54,2.33-2.76,1.19-2.7,1.36-5.36,2.78c-1.75,1-3.47,2.08-5.19,3.13l-2.57,1.6c-.86.53-1.66,1.15-2.49,1.73l-4.92,3.57c-1.61,1.22-3.13,2.57-4.69,3.87-3.16,2.55-5.98,5.46-8.86,8.31l-1.07,1.08-1,1.13-2,2.28-1.98,2.29c-.66.77-1.32,1.53-1.91,2.34l-3.6,4.83c-.58.82-1.22,1.61-1.75,2.45l-1.61,2.52-3.18,5.07c-.94,1.68-1.83,3.37-2.73,5.06-.88,1.67-1.85,3.45-2.55,4.97-.76,1.6-1.53,3.11-2.26,4.78-3.03,6.65-5.49,13.27-7.62,19.81-4.25,13.09-7.1,25.84-9.36,38.12-1.13,6.14-2.12,12.19-3.03,18.1l-2.61,17.25c-3.45,23.16-6.47,46.51-8.98,69.84-4.09,38.08-6.75,76.27-8.36,114.49-.91,22.02-1.52,43.81-1.74,65.75Z"/>
      <path class="st2" d="M121.1,437.2l2.61.1c-.25,6.48-.36,13.15-.72,19.5-.49,15.37-.71,30.76-.79,46.14-.94-.02-1.89.06-2.84,0,.22-21.94.83-43.73,1.74-65.75Z"/>
    </g>
  </g>
  <g>
    <path class="st1" d="M133.76,461.59c6.43,1.99,12.9,3.85,19.38,5.75,6.49,1.79,12.98,3.67,19.52,5.3,6.52,1.75,13.09,3.24,19.65,4.79,6.59,1.39,13.17,2.85,19.79,3.99,5.47,1.07,10.98,1.85,16.48,2.71,2.75.47,5.52.72,8.28,1.09,2.76.32,5.53.72,8.3.97,5.54.45,11.09,1.1,16.66,1.31l8.35.43,8.36.12,4.18.06,4.18-.1,8.36-.22c2.78-.14,5.56-.37,8.35-.55,2.78-.2,5.58-.35,8.34-.72l8.32-.96c1.39-.13,2.77-.37,4.15-.6l4.15-.68c5.51-.88,11.13-1.86,16.61-3.02,22-4.6,43.59-11.55,64.17-20.92,5.13-2.35,10.24-4.82,15.22-7.46,4.98-2.64,9.87-5.47,14.65-8.47,9.54-6.01,18.64-12.73,26.82-20.39,8.12-7.67,15.36-16.35,20.2-26.18,2.41-4.91,4.17-10.1,5.02-15.43.86-5.33.79-10.79-.23-16.11-1-5.32-2.97-10.53-5.52-15.35-1.12-2.48-2.95-4.63-4.5-6.91-.41-.56-.78-1.15-1.22-1.68l-1.35-1.61-2.71-3.22c-.43-.55-.93-1.05-1.43-1.55l-1.48-1.5-2.95-3.01c-2.13-1.85-4.19-3.78-6.37-5.58l-3.35-2.61c-1.11-.87-2.22-1.76-3.4-2.54l-3.5-2.43c-.59-.4-1.16-.82-1.76-1.21l-1.81-1.13c-9.61-6.1-19.86-11.25-30.36-15.85-10.51-4.6-21.28-8.64-32.14-12.51l-8.14-2.87c-2.73-.89-5.45-1.79-8.2-2.65-5.49-1.72-11-3.38-16.54-4.92-5.66-1.58-11.53-3.13-17.32-4.53-5.82-1.41-11.65-2.72-17.5-3.94-7.71-1.61-15.53-3.03-23.2-4.35-7.63-1.34-15-2.68-22.36-3.79-7.36-1.14-14.71-2.09-22.04-3.04l-11-1.49-5.5-.81c-.9-.17-1.86-.28-2.65-.79-.22-.13-.22-.45-.03-.61.17-.17.37-.29.58-.4.42-.22.86-.38,1.3-.53,7.18-2.08,14.43-4.01,21.68-6,7.23-2.04,14.45-4.34,21.57-6.95,7.12-2.61,14.19-5.54,21.21-8.84l5.27-2.56,5.29-2.71c1.77-.89,3.45-1.92,5.18-2.87,1.74-.94,3.37-2,5.03-3.04,6.58-4.18,12.8-8.91,18.22-14.28,5.38-5.32,10.06-11.4,13.54-18.13,1.73-3.36,3.07-6.92,3.96-10.59.88-3.67,1.2-7.47,1.01-11.24-.52-7.52-3.61-14.79-8.23-20.76-4.63-6.01-10.72-10.78-17.32-14.52-6.61-3.74-13.76-6.5-21.09-8.52-7.34-2.01-14.88-3.28-22.47-3.79-7.59-.39-15.24-.24-22.77.92-7.52,1.19-14.9,3.22-21.94,6.11-7.04,2.88-13.74,6.63-19.77,11.29-6.05,4.62-11.5,10.01-16.21,15.99-4.81,5.93-8.43,12.69-11.76,19.53-6.57,13.78-10.62,28.6-13.73,43.5-3.11,14.93-5.07,30.07-7.37,45.15-8.73,60.38-14.23,121.22-16.27,182.16-.67,20.07-1.12,40.17-.9,60.13,2.65,0,5.3-.01,7.94-.02-.08-27.41.57-54.87,1.96-82.29,1.42-27.42,3.42-54.81,6.1-82.09.19-2.06.59-6.58.98-10.92.43-4.34.88-8.5,1.14-9.85.42-2.13.89.5.93,1.99.11,5.42-1.95,20.98-2.61,28.14-2.44,25.75-4.31,51.57-5.49,77.42-1.18,25.85-1.77,51.73-1.77,77.59,4.95-.03,9.91.21,14.86-.03-.02-26.87.58-53.74,1.88-80.58,1.34-26.84,3.27-53.66,5.92-80.42,2.67-26.76,5.88-53.44,9.83-80.1l3-20.02c1.01-6.52,2.1-12.9,3.34-19.12,2.48-12.42,5.6-24.23,9.92-34.74l1.67-3.87,1.88-3.92,1.86-3.5c.32-.57.59-1.21.93-1.72l1.01-1.59,1-1.6.49-.8c.17-.26.37-.5.56-.75.75-.99,1.49-1.99,2.22-3,.75-.99,1.62-1.87,2.41-2.82.41-.46.79-.95,1.21-1.4l1.32-1.29,1.31-1.3.65-.66c.23-.21.47-.39.7-.59.94-.79,1.88-1.58,2.8-2.39.97-.75,1.99-1.43,2.97-2.17.96-.77,2.04-1.38,3.09-2.02,2.04-1.38,4.31-2.4,6.49-3.58l3.44-1.46.86-.38c.29-.11.59-.2.89-.3l1.78-.61,1.78-.63c.59-.21,1.22-.33,1.83-.5,1.23-.31,2.44-.69,3.68-.96l3.77-.72c.31-.06.62-.13.94-.18l.96-.11,1.92-.23,1.92-.25c.64-.08,1.3-.07,1.95-.12,1.3-.06,2.6-.17,3.9-.2,2.63.08,5.26-.01,7.91.23,10.62.81,21.6,3.61,30.12,7.91,4.28,2.12,7.82,4.66,10.33,7.17,2.52,2.54,3.95,4.88,4.72,7.31.1.31.15.63.26.94.07.18.07.27.08.37.02.1.04.2.07.3.1.22.03.35.07.5,0,.04.02.07.02.12v.23c0,.15,0,.31.02.46.04,1.22-.13,2.46-.47,3.86-.67,2.77-2.3,6.25-5.01,10.03-.68,1-1.43,1.85-2.16,2.75l-1.07,1.35c-.37.45-.83.87-1.23,1.31l-1.24,1.31-.61.66c-.34.31-.85.73-1.27,1.08l-5.28,4.46c-9.18,6.6-20.11,12.13-33.98,17.3l-11.17,3.78-11.97,3.89-3,.97-.75.24-.38.12c-.12.04-.17.09-.26.14l-.96.55-3.84,2.2-3.84,2.2-.96.55c-.31.18-.44.35-.67.52l-1.22,1.03-2.42,2.06-1.2,1.03-.6.52-.3.26-.24.22-3.78,3.57c-.3.29-.66.61-.91.88l-.66.76-1.33,1.52-2.46,2.79c-.86.91-1.69,1.93-2.59,2.66l-2.57,2.31c-.76.66-1.56,1.39-2.28,1.99-.7.56-1.42,1.18-2.11,1.7l-3.97,2.75-1.96,1.38c-.64.46-1.29.79-1.92,1.25-.31.25-.63.47-.89.97-.05.14-.13.32-.08.62.05.27.15.44.24.57.18.26.37.45.55.61.75.61,1.52,1.08,2.27,1.64l4.61,3.36c1.6,1.17,3.29,2.41,5.2,3.73,1.87,1.33,4.21,2.74,6.58,4.28l1.71,1.22c.59.41,1.3.84,1.95,1.26l.99.63c.32.21.77.42,1.15.64l2.37,1.28,2.58,1.33,1.31.67.65.33.79.32,3.2,1.27c.54.21,1.05.43,1.62.63l2.02.52,4.04,1.05,1.01.26c.35.08.63.19,1.08.24l2.46.37c3.3.49,6.53,1,9.93,1.44l10.09,1.38c3.35.46,6.73.91,9.96,1.43,13.1,2,25.59,4.29,37.72,7.03l4.55,1.03,4.5,1.11,4.49,1.11,4.36,1.16,4.15,1.11,2.56.73,5.11,1.5c3.4,1.01,6.79,2.06,10.17,3.15l4.93,1.61c1.59.5,3.31,1.14,4.99,1.73l10.16,3.66,5.02,1.88c1.68.62,3.34,1.25,4.97,1.9,6.62,2.53,12.92,5.25,19.11,8.05,3.01,1.46,6.11,2.85,8.97,4.41,1.44.77,2.95,1.49,4.34,2.29l4.19,2.39c5.44,3.27,10.71,6.65,15.22,10.39l1.75,1.37c.56.47,1.07.96,1.6,1.44,1.05.96,2.15,1.9,3.18,2.87,1.87,2.02,3.95,3.93,5.53,6.04l1.28,1.53c.21.25.45.51.63.76l.47.71c.64.94,1.29,1.86,1.97,2.77.08.11.19.23.24.33l.13.3.27.59c.19.39.39.77.6,1.15.36.92.81,1.9,1.16,2.81.13.46.28.91.43,1.36l.24.67.13.65c.09.43.2.86.31,1.29.1.43.1.84.18,1.25.29,1.66.23,3.24.14,4.86-.35,3.22-1.26,6.71-3.33,10.62-.26.49-.48.97-.76,1.47l-.9,1.49-.44.75-.52.76-1.02,1.52c-1.5,2.03-3.08,4.1-4.94,6.14-7.29,8.23-17.24,16.05-28.02,22.89-5.4,3.44-11.08,6.62-16.87,9.58-5.89,2.99-11.96,5.8-18.09,8.35-12.28,5.13-24.93,9.36-37.82,12.69-6.45,1.67-12.92,3.11-19.51,4.34l-5.1.91-4.92.78c-3.27.49-6.56,1.14-9.8,1.41-12.94,1.67-26.11,2.13-39.34,1.84l-4.96-.1c-1.66-.06-3.32-.19-4.98-.28l-4.98-.29-2.49-.14-2.5-.24-9.98-.95-10-1.28c-13.34-1.89-26.7-4.43-40.05-7.48-20.04-4.65-40.01-10.43-59.99-16.82-1.77,5.43-3.11,10.99-4.69,16.47,29.5,9.33,59.31,17.4,89.55,22.49,30.2,5.07,60.85,6.89,91.04,3.76l5.65-.65,2.83-.32c.94-.1,1.88-.29,2.83-.44l11.33-1.87c3.87-.69,7.61-1.42,11.35-2.24,3.74-.81,7.47-1.68,11.18-2.64,14.85-3.8,29.43-8.72,43.53-14.77,7.03-3.02,14.03-6.35,20.73-9.91,6.7-3.59,13.25-7.47,19.48-11.71,6.24-4.23,12.2-8.78,17.63-13.71,2.76-2.44,5.29-5.03,7.76-7.64,1.16-1.35,2.42-2.65,3.49-4.03l1.66-2.05,1.54-2.1c3.6-4.92,6.41-10.13,8.22-15.42,1.87-5.29,2.54-10.67,2.12-16.02l-.06-1.01c-.02-.34-.1-.67-.15-1l-.31-2.01c-.07-.67-.32-1.33-.46-2-.17-.67-.31-1.34-.5-2.01l-.68-1.99c-.24-.66-.4-1.34-.72-1.99l-.86-1.97-.42-.99c-.15-.32-.32-.61-.48-.91-2.37-4.84-6.46-9.75-10.69-14.4l-3.32-3.4c-1.14-1.11-2.38-2.14-3.57-3.22l-1.8-1.61c-.61-.53-1.27-1.01-1.9-1.51l-3.84-3.01-4.04-2.82-2.02-1.41-2.11-1.32-4.23-2.65-4.38-2.48-2.19-1.24-2.25-1.17-4.51-2.33-4.62-2.2c-1.54-.74-3.08-1.47-4.66-2.15l-4.72-2.08c-1.58-.68-3.19-1.33-4.79-1.99-3.18-1.35-6.44-2.58-9.68-3.85-6.51-2.47-13.16-4.89-19.76-7.21-3.33-1.2-6.52-2.21-9.87-3.29-3.33-1.06-6.67-2.08-10.02-3.07l-5.03-1.46-2.52-.71-2.94-.8c-4.25-1.16-8.62-2.27-12.98-3.32-8.73-2.11-17.61-3.95-26.69-5.62-4.54-.83-9.16-1.6-13.8-2.34-4.63-.74-9.33-1.45-13.74-2.24l-3.1-.66-1.55-.33c-.52-.11-1.04-.22-1.49-.34l-2.79-.73c-.93-.24-1.88-.49-2.71-.74l-5.09-1.47-2.48-.71-2.34-.7-4.53-1.35-4.5-1.22-8.59-2.24c-5.47-1.38-10.93-2.76-16.39-4.14-.66-.21-1.35-.37-1.94-.89-.15-.13-.24-.42-.11-.6.09-.18.24-.29.38-.4.29-.21.59-.37.9-.51,1.24-.56,2.52-.93,3.78-1.36l7.62-2.67,3.81-1.33c1.27-.44,2.54-.88,3.82-1.42,2.55-.98,5.13-2.12,7.74-3.3,5.41-2.37,10.24-5.3,16.16-8.82,2.88-1.69,6.14-3.75,9.45-5.74l5.95-3.18c.51-.26.95-.53,1.52-.79l1.92-.77,3.83-1.54,3.83-1.54,3.63-1.57,3.63-1.57,1.81-.79,1.63-.84,6.5-3.37,5.92-3.62c.48-.31,1.01-.59,1.46-.92l1.35-.99,2.7-1.97,1.35-.99c.44-.33.94-.66,1.27-.99l2.24-1.99,2.24-1.99c.18-.16.39-.34.54-.49l.4-.42.79-.85,1.59-1.69.8-.84c.26-.29.48-.59.72-.89.94-1.2,1.92-2.36,2.85-3.57.91-1.25,1.77-2.5,2.56-3.76,1.59-2.53,2.93-5.11,3.96-7.7,1.05-2.59,1.72-5.21,2.08-7.8.2-1.3.25-2.59.27-3.89.02-.65-.05-1.29-.06-1.94-.07-.6-.1-1.16-.18-1.75-.13-.59-.26-1.18-.37-1.77l-.53-1.88c-.2-.62-.44-1.23-.65-1.85-.22-.61-.52-1.2-.77-1.8-1.11-2.37-2.54-4.62-4.26-6.73-3.44-4.23-8.06-7.89-13.28-10.89-5.22-3.02-11.07-5.36-17.11-7.17-6.06-1.81-12.38-3.02-18.71-3.69-3.17-.33-6.34-.53-9.5-.5-3.17-.13-6.31.17-9.46.32-6.26.64-12.42,1.84-18.38,3.64-11.85,3.79-22.84,10.07-31.65,18.74-5.14,4.97-9.72,10.82-13.52,17.3-.9,1.69-1.79,3.37-2.69,5.07-.88,1.73-1.77,3.56-2.59,5.35-.79,1.8-1.61,3.59-2.32,5.45-.76,1.83-1.44,3.71-2.12,5.59-5.38,15.09-8.7,31.27-11.52,46.76-.76,4.13-2.01,11.54-3.12,16.75-1.11,5.21-2.07,8.26-2.19,3.8-.15-5.5.78-8.84,1.9-16.12,2.78-17.92,6.11-35.62,11.92-52.23,1.43-4.16,3.1-8.18,4.87-12.15.96-1.96,1.87-4,2.9-5.85l1.5-2.84c.25-.47.49-.96.76-1.42l.85-1.34c4.37-7.25,9.81-13.82,16.15-19.37,6.33-5.56,13.54-10.11,21.29-13.48,7.75-3.38,16.04-5.58,24.5-6.62l3.17-.39,3.2-.17,3.2-.18,3.21.04c4.28-.06,8.57.34,12.84.89,8.53,1.14,16.95,3.29,24.79,6.47,6.87,2.81,13.31,6.48,18.54,11.15,5.24,4.66,9.2,10.3,11.1,16.63.2.79.47,1.6.62,2.38l.23,1.16c.08.38.17.77.18,1.15l.11,1.15c.03.39.03.81.05,1.22.06.82,0,1.64-.01,2.46-.18,3.28-.82,6.56-1.98,9.77-1.14,3.22-2.71,6.37-4.63,9.41-.94,1.53-2,3.01-3.09,4.5l-3.45,4.25-3.8,4.01c-1.58,1.45-3.3,2.94-4.94,4.41-1.83,1.46-3.85,2.89-5.77,4.33l-.73.54-.79.5-1.58,1-3.16,1.99c-4.39,2.57-8.97,5.02-14.16,7.28-2.47,1.17-5.17,2.27-7.81,3.39l-1.99.84-.99.42c-.34.14-.67.28-.92.42l-3.26,1.7-3.26,1.7c-1.02.55-1.89,1.06-2.84,1.6-1.86,1.05-3.76,2.15-5.48,3.07-3.61,1.97-6.84,3.7-10.09,5.32-1.61.76-3.21,1.58-4.84,2.29-1.63.69-3.27,1.42-4.88,2.08-1.6.63-3.21,1.29-4.8,1.89-1.59.57-3.18,1.19-4.77,1.71l-9.5,3.09-4.74,1.55c-1.57.51-3.18.9-4.67,1.71-.18.11-.36.23-.51.4-.17.15-.19.51.01.67.35.32.76.46,1.16.61.81.27,1.64.42,2.47.61l4.95,1.08,9.98,2.12c3.36.72,6.77,1.46,10.29,2.26l5.33,1.24,5.39,1.37,5.68,1.43c1.98.5,3.85,1,5.99,1.49l3.13.74,3.39.68,1.7.34.85.17.91.15,3.67.6c4.9.8,9.88,1.6,14.79,2.45l7.31,1.33,7.22,1.42c9.57,1.95,18.98,4.17,28.21,6.64l3.31.89,2.87.8c1.92.53,3.82,1.1,5.73,1.65,3.81,1.12,7.61,2.29,11.39,3.49,1.87.61,3.73,1.2,5.61,1.83l5.63,1.97c3.75,1.34,7.54,2.66,11.26,4.05,7.48,2.73,14.84,5.63,22.04,8.75,7.23,3.09,14.24,6.51,21,10.24,6.8,3.69,13.21,7.87,19.21,12.45l2.23,1.74c.74.58,1.5,1.14,2.18,1.78l4.2,3.71c1.36,1.27,2.61,2.63,3.92,3.93.63.67,1.34,1.29,1.91,2l1.77,2.11c2.5,2.76,4.4,5.69,6.43,8.55l1.17,2.22c.39.74.81,1.46,1.12,2.27l1.04,2.37c.39.78.57,1.6.87,2.4,1.19,3.2,1.8,6.48,2.2,9.76.35,3.29.2,6.58-.17,9.86-.55,3.27-1.33,6.53-2.54,9.72-.27.8-.66,1.58-.98,2.38-.33.79-.66,1.59-1.08,2.36l-1.17,2.33-1.33,2.29-.67,1.14-.74,1.12-1.47,2.23c-1.09,1.44-2.08,2.93-3.26,4.33-2.22,2.87-4.77,5.56-7.32,8.23-5.25,5.25-11.03,10.13-17.13,14.65-6.13,4.49-12.56,8.66-19.2,12.49-3.33,1.91-6.69,3.74-10.11,5.49l-5.18,2.59-5.23,2.48c-7.01,3.24-14.15,6.19-21.39,8.85-14.48,5.33-29.36,9.53-44.43,12.6-1.88.39-3.77.76-5.7,1.11l-2.88.53-2.84.47-5.68.93-2.84.47c-.95.17-1.89.31-2.84.4l-11.37,1.31-11.43.79c-14.09.68-28.22.39-42.31-.7-14.08-1.04-28.11-3.11-42.05-5.64-27.88-5.06-55.33-12.73-82.54-21.28-.53,1.85-1.06,3.71-1.59,5.56,1.84.49,3.57,1,5.35,1.54ZM318.81,201.77l-3.48,2.38-1.74,1.19c-.58.4-1.28.74-1.91,1.11l-3.89,2.18-1.95,1.09c-.64.37-1.28.73-2.05,1.06l-8.78,4.05-10.07,3.81c-1.63.63-3.52,1.27-5.29,1.91l-5.4,1.91-2.7.96c-.51.15-.73.34-1.07.51l-.95.52-3.81,2.08-1.91,1.04c-.6.34-1.37.71-1.76,1.02l-2.78,1.95-5.19,3.7c-3.4,2.39-5.84,4.35-8.4,6.21-1.22.85-2.43,1.76-3.66,2.56l-3.71,2.26-3.49,1.98-3.37,1.74-6.56,2.92-3.26,1.47c-1.07.49-2.16.86-3.22,1.39-.26.13-.53.28-.78.46-.24.2-.53.35-.64.82-.04.28.14.5.25.64.13.14.27.24.41.34.28.19.57.33.86.46l3.48,1.39c4.65,1.86,9.23,3.74,14.54,5.95l4.14,1.71,2.18.9,2.13.98c.68.32,1.5.67,2.26,1.01.8.34,1.49.68,2.4,1.02l5.32,2.11,1.38.54.69.27.79.26,3.18,1.04c.55.17,1.01.36,1.64.51l1.88.45,3.76.89c5.48,1.03,11.6,1.85,17.54,2.74,12,1.72,23.45,3.74,34.61,6.06,5.57,1.17,11.07,2.41,16.51,3.77l4.09,1.02,3.99,1.06,3.92,1.05,2.71.77c3.62,1.02,7.22,2.1,10.81,3.2,3.6,1.1,7.19,2.26,10.63,3.4,7.04,2.44,14.33,5.04,21.35,7.68,14.04,5.33,27.61,11.08,39.85,18.07l2.31,1.3c.76.44,1.48.91,2.22,1.37l4.41,2.76c2.78,1.96,5.67,3.84,8.23,5.96,2.73,1.99,5.06,4.26,7.55,6.4,2.21,2.32,4.6,4.52,6.51,6.99.54.63,1.07,1.26,1.6,1.88l.4.47.32.46.64.91c.43.6.86,1.2,1.29,1.8l.65.89c.22.3.46.59.57.87.28.57.57,1.13.87,1.69l.46.83c.14.3.27.63.41.94l.83,1.88c.3.62.43,1.25.67,1.86.94,2.47,1.34,4.89,1.69,7.27.04,1.2.24,2.38.15,3.57-.03.59.03,1.18-.04,1.78-.07.6-.13,1.19-.18,1.79-.35,2.39-.83,4.8-1.77,7.25-.37,1.23-.99,2.46-1.49,3.7-.27.62-.63,1.24-.94,1.86-.32.62-.61,1.25-1.01,1.87l-1.11,1.87c-.38.62-.83,1.24-1.24,1.86-.79,1.25-1.79,2.47-2.7,3.72-1.98,2.45-4.08,4.91-6.48,7.29-4.66,4.74-10.01,9.34-15.74,13.69-5.71,4.37-11.84,8.48-18.14,12.28-6.28,3.81-12.79,7.22-19.41,10.39-6.59,3.14-13.19,5.92-19.7,8.29-6.52,2.45-17.55,5.75-13.37,3.03,3.48-2.32,8.07-3.55,13.83-5.87,8.59-3.4,16.96-7.27,25.17-11.48,8.06-4.18,15.87-8.78,23.17-13.83,3.66-2.51,7.19-5.14,10.52-7.87,3.34-2.73,6.55-5.54,9.44-8.46,2.91-2.91,5.6-5.9,7.95-8.94,2.31-3.04,4.29-6.11,5.84-9.13,1.54-3.02,2.73-5.98,3.35-8.83.65-2.85.87-5.58.69-8.33-.05-.69-.04-1.38-.21-2.07l-.16-1.04c-.05-.35-.08-.7-.2-1.05-.19-.7-.36-1.41-.52-2.12-.25-.71-.51-1.43-.74-2.16-.18-.73-.61-1.46-.9-2.19l-.47-1.11c-.15-.38-.34-.64-.51-.97l-.99-1.93-1.53-2.08-1.48-2.12-1.87-2.21-1.86-2.23c-.65-.73-1.39-1.41-2.07-2.13l-2.08-2.13c-.69-.71-1.51-1.35-2.26-2.04l-2.28-2.03-.57-.51-.62-.48-1.24-.96c-6.51-5.18-13.91-9.84-21.83-14.07-10.1-5.34-20.99-10.01-32.31-14.36-2.81-1.1-5.72-2.14-8.58-3.21l-8.72-3.12c-5.85-2.11-11.31-3.86-17.23-5.68-2.91-.9-5.83-1.76-8.76-2.61l-4.4-1.24-6.62-1.76c-9.3-2.41-18.81-4.57-28.55-6.47-2.46-.46-4.88-.94-7.37-1.38l-7.47-1.31-7.63-1.21-7.77-1.13c-5.18-.75-10.51-1.45-15.56-2.25l-3.83-.58c-.34-.04-.6-.11-.86-.18l-.81-.2-1.61-.4-3.22-.79-.81-.2c-.28-.06-.54-.13-.74-.22l-1.32-.47c-3.71-1.22-6.64-2.59-9.44-3.84l-2.08-.94c-.68-.31-1.23-.62-1.85-.93-.59-.31-1.24-.62-1.79-.92l-1.62-.9c-1.07-.63-2.21-1.11-3.32-1.67l-3.11-1.55-5.58-2.86c-3.5-1.81-6.71-3.46-10-5.08-.41-.2-.82-.41-1.22-.72-.2-.17-.41-.33-.57-.67-.09-.19-.08-.46,0-.59.06-.15.14-.25.22-.35.66-.68,1.42-.98,2.15-1.35,1.47-.67,2.96-1.54,4.47-2.3l4.52-2.36c.75-.35,1.54-.88,2.32-1.35l1.18-.72c.4-.25.82-.54,1.23-.81.84-.57,1.62-1.06,2.52-1.7l2.71-1.92c.9-.65,1.77-1.45,2.66-2.17l1.33-1.11,1.47-1.3,1.47-1.3.74-.65.38-.33.47-.38,3.77-3.01.94-.75,1.13-.86,2.27-1.72,2.28-1.72.57-.43c.19-.14.53-.3.79-.45l1.66-.92,6.62-3.66c.22-.16.68-.29,1.08-.43l1.22-.41,2.44-.83,4.88-1.65,4.84-1.65,4.55-1.63,4.55-1.63c1.5-.54,3.11-1.07,4.33-1.66,2.88-1.27,5.46-2.41,7.82-3.45.58-.26,1.18-.51,1.71-.77.5-.27.98-.53,1.45-.78.95-.51,1.85-1,2.72-1.47,1.74-.94,3.35-1.8,4.89-2.62,1.41-.88,2.67-1.76,3.97-2.6,1.29-.85,2.57-1.69,3.9-2.56l.5-.33.39-.32c.26-.21.52-.43.78-.65.53-.43,1.07-.88,1.64-1.34.56-.46,1.15-.94,1.75-1.44.3-.25.61-.5.93-.76.29-.24.73-.58.84-.72.75-.73,1.56-1.52,2.47-2.41.71-.64,1.29-1.34,1.89-2.04.61-.7,1.22-1.4,1.83-2.11,1.2-1.52,2.27-3.05,3.22-4.57,1.86-3.06,3.22-6.09,3.88-8.91.34-1.41.53-2.77.6-4.11l.03-1c-.02-.33-.03-.67-.03-1-.07-.58-.02-.99-.19-1.56-.07-.28-.08-.52-.16-.84-.09-.33-.18-.66-.26-.99-.06-.34-.2-.65-.3-.97-.12-.32-.19-.65-.33-.96-.49-1.25-1.08-2.48-1.78-3.69-2-3.5-5.39-6.91-7.93-9.3-1.26-1.2-2.25-2.17-2.67-2.84-.41-.68-.23-1.08.8-1.07,5.37,3.4,9.72,7.48,12.33,11.9,1.33,2.21,2.28,4.49,2.87,6.9.3,1.18.45,2.12.5,3.12.02,1.21.05,2.42-.11,3.63-.23,2.43-.92,4.91-1.94,7.47-1.07,2.56-2.47,5.18-4.27,7.79-.87,1.29-1.87,2.66-2.91,3.86-1.04,1.22-1.97,2.51-3.18,3.66l-1.71,1.78-.43.45-.22.23-.35.3-1.41,1.21-2.83,2.42c-.5.41-.89.8-1.47,1.22l-1.81,1.24Z"/>
    <path class="st0" d="M444.5,304.15c-.89.45-3.63.52,2.53,4.49,1.63,1.11,3.73,2.5,6.12,3.98,2.38,1.5,4.91,3.31,7.56,5.05,1.27.94,2.55,1.9,3.82,2.84,1.25.97,2.56,1.82,3.68,2.84,1.15.98,2.27,1.93,3.32,2.82,1.06.89,2.05,1.74,2.86,2.6.86.86,1.72,1.73,2.6,2.61.86.9,1.81,1.73,2.6,2.73.83.97,1.66,1.95,2.5,2.94.42.5.84.99,1.26,1.49.43.49.85,1,1.22,1.56.77,1.08,1.55,2.17,2.33,3.27l1.17,1.65.59.83.49.9c.65,1.21,1.29,2.43,1.94,3.64.58,1.24,1.11,2.51,1.66,3.76,2.08,5.08,3.49,10.48,4.01,15.85.55,5.37.19,10.69-.86,15.56-.94,4.39-2.33,8.68-4.19,12.73-1.88,4.03-4.07,7.91-6.57,11.54-5.03,7.26-11,13.77-17.48,19.61-12.98,11.71-27.73,21.14-43.09,29.07-30.8,15.81-64.14,25.92-97.95,30.82-33.79,5.11-68.05,3.79-101.38-1.35-33.39-5.14-65.96-13.96-97.95-24.13l1.09-3.82c1.84.49,3.57,1,5.35,1.54,6.43,1.99,12.9,3.85,19.38,5.75,6.49,1.79,12.98,3.67,19.52,5.3,6.52,1.75,13.09,3.24,19.65,4.79,6.59,1.39,13.17,2.85,19.79,3.99,5.47,1.07,10.98,1.85,16.48,2.71,2.75.47,5.52.72,8.28,1.09,2.76.32,5.53.72,8.3.97,5.54.45,11.09,1.1,16.66,1.31l8.35.43,8.36.12,4.18.06,4.18-.1,8.36-.22c2.78-.14,5.56-.37,8.35-.55,2.78-.2,5.58-.35,8.34-.72l8.32-.96c1.39-.13,2.77-.37,4.15-.6l4.15-.68c5.51-.88,11.13-1.86,16.61-3.02,22-4.6,43.59-11.55,64.17-20.92,5.13-2.35,10.24-4.82,15.22-7.46,4.98-2.64,9.87-5.47,14.65-8.47,9.54-6.01,18.64-12.73,26.82-20.39,8.12-7.67,15.36-16.35,20.2-26.18,2.41-4.91,4.17-10.1,5.02-15.43.86-5.33.79-10.79-.23-16.11-1-5.32-2.97-10.53-5.52-15.35-1.12-2.48-2.95-4.63-4.5-6.91-.41-.56-.78-1.15-1.22-1.68l-1.35-1.61-2.71-3.22c-.43-.55-.93-1.05-1.43-1.55l-1.48-1.5-2.95-3.01c-2.13-1.85-4.19-3.78-6.37-5.58l-3.35-2.61c-1.11-.87-2.22-1.76-3.4-2.54l-3.5-2.43c-.59-.4-1.16-.82-1.76-1.21l-1.81-1.13c-9.61-6.1-19.86-11.25-30.36-15.85-10.51-4.6-21.28-8.64-32.14-12.51l-8.14-2.87c-2.73-.89-5.45-1.79-8.2-2.65-5.49-1.72-11-3.38-16.54-4.92-5.66-1.58-11.53-3.13-17.32-4.53-5.82-1.41-11.65-2.72-17.5-3.94-7.71-1.61-15.53-3.03-23.2-4.35-7.63-1.34-15-2.68-22.36-3.79-7.36-1.14-14.71-2.09-22.04-3.04l-11-1.49-5.5-.81c-.9-.17-1.86-.28-2.65-.79-.22-.13-.22-.45-.03-.61.17-.17.37-.29.58-.4.42-.22.86-.38,1.3-.53,7.18-2.08,14.43-4.01,21.68-6,7.23-2.04,14.45-4.34,21.57-6.95,7.12-2.61,14.19-5.54,21.21-8.84l5.27-2.56,5.29-2.71c1.77-.89,3.45-1.92,5.18-2.87,1.74-.94,3.37-2,5.03-3.04,6.58-4.18,12.8-8.91,18.22-14.28,5.38-5.32,10.06-11.4,13.54-18.13,1.73-3.36,3.07-6.92,3.96-10.59.88-3.67,1.2-7.47,1.01-11.24-.52-7.52-3.61-14.79-8.23-20.76-4.63-6.01-10.72-10.78-17.32-14.52-6.61-3.74-13.76-6.5-21.09-8.52-7.34-2.01-14.88-3.28-22.47-3.79-7.59-.39-15.24-.24-22.77.92-7.52,1.19-14.9,3.22-21.94,6.11-7.04,2.88-13.74,6.63-19.77,11.29-6.05,4.62-11.5,10.01-16.21,15.99-4.81,5.93-8.43,12.69-11.76,19.53-6.57,13.78-10.62,28.6-13.73,43.5-3.11,14.93-5.07,30.07-7.37,45.15-8.73,60.38-14.23,121.22-16.27,182.16-.67,20.07-1.12,40.17-.9,60.13-2,0-4.01,0-6.01.01-.05-17.3.26-34.64.74-51.94,1.01-36.26,3.31-72.49,6.71-108.63,3.46-36.13,8.09-72.17,13.73-108.03,2.86-18.01,6.48-36.22,13.06-53.81,1.69-4.37,3.52-8.75,5.6-12.93,1.02-2.11,2.2-4.22,3.3-6.32.53-1.07,1.17-2.08,1.82-3.1l1.92-3.05c5.28-8.03,11.79-15.3,19.27-21.39,7.47-6.1,15.9-11.01,24.84-14.57,8.94-3.56,18.37-5.78,27.89-6.7,1.19-.18,2.38-.18,3.57-.26l3.58-.19c1.19-.1,2.38-.04,3.58-.04l3.58.04c4.77.09,9.51.57,14.2,1.29,9.38,1.45,18.63,3.91,27.48,7.73,8.82,3.8,17.33,9.02,24.3,16.37,3.44,3.69,6.43,7.94,8.67,12.6,1.07,2.36,2.03,4.77,2.69,7.27l.5,1.88.39,1.96c.31,1.29.37,2.65.51,3.99.15,2.6.09,5.2-.18,7.78-.31,2.57-.81,5.11-1.49,7.58-.71,2.46-1.59,4.84-2.6,7.14-1.04,2.28-2.19,4.5-3.46,6.61-1.28,2.1-2.62,4.16-4.07,6.09-1.47,1.93-3.04,3.8-4.57,5.68l-2.5,2.63-1.25,1.31c-.42.44-.84.89-1.21,1.21l-2.31,2.11c-.77.7-1.54,1.44-2.29,2.01-5.96,4.97-12.53,9.17-19.36,12.84-6.84,3.67-13.97,6.82-21.23,9.6-7.27,2.78-14.68,5.18-22.19,7.3l-11.3,3.04-5.65,1.53c-.94.25-1.89.49-2.82.78-.47.15-.93.3-1.38.49-.22.1-.45.2-.65.33-.18.12-.46.32-.33.57.31.38.84.46,1.29.59.47.11.95.19,1.43.26l2.87.4,5.76.75,11.53,1.38c7.69.9,15.39,1.89,23.06,3.07,15.35,2.31,30.66,5.21,45.8,8.97,3.79.92,7.54,1.92,11.39,2.95,4.4,1.21,8.79,2.45,13.15,3.77,4.37,1.3,8.71,2.68,13.1,4.09,4.31,1.48,8.61,2.97,12.88,4.5,17.11,6.11,34.24,12.78,50.47,21.74Z"/>
    <path class="st0" d="M135.62,434.73c.25-.75.41-1.53.65-2.29,20.36,5.78,40.56,10.91,60.63,14.92,1.77.37,6.52,1.39,11.48,2.51,4.95,1.07,10.09,2.03,12.63,2.53,19.9,3.55,39.61,5.57,59.01,5.81,2.44.11,4.83-.04,7.25-.05,2.41-.06,4.83-.06,7.23-.16l7.17-.45,3.59-.22c1.19-.1,2.37-.25,3.55-.37l7.1-.76c1.18-.1,2.38-.3,3.57-.49l3.58-.57c2.41-.39,4.73-.71,7.22-1.15l3.75-.67,3.58-.69c18.99-3.76,37.57-9.41,55.28-16.97,4.41-1.92,8.8-3.88,13.11-6.04,4.28-2.1,8.37-4.28,12.41-6.61,8.07-4.63,15.66-9.81,22.37-15.28,6.69-5.46,12.37-11.35,16.28-16.92,1.95-2.78,3.44-5.45,4.42-7.84.98-2.41,1.49-4.5,1.67-6.46.18-1.96.06-3.85-.47-6.04-.06-.54-.29-1.11-.48-1.69-.09-.29-.18-.58-.26-.88-.12-.3-.27-.61-.4-.92l-.38-.93c-.06-.15-.12-.32-.18-.46l-.2-.35c-.26-.48-.46-.96-.69-1.48-.46-.6-.91-1.22-1.35-1.84l-.64-.95c-.24-.33-.35-.62-.7-.99l-1.79-2.14-.88-1.09-.44-.55-.51-.52-2.03-2.09c-.67-.7-1.31-1.43-2.1-2.08l-2.26-2.03-1.12-1.03-1.24-.98c-6.47-5.29-14.17-10.16-22.61-14.6-8.45-4.45-17.65-8.48-27.32-12.29l-3.63-1.43-3.71-1.4-3.72-1.4-3.79-1.38c-2.51-.9-5.03-1.8-7.55-2.71-2.55-.94-4.89-1.67-7.3-2.48-5.03-1.62-10.08-3.18-15.17-4.66l-3.82-1.09-1.12-.31-1.73-.46-3.47-.92-3.47-.92-3.59-.88c-2.4-.57-4.76-1.2-7.2-1.72-2.94-.65-5.85-1.33-8.81-1.95l-8.95-1.8-9.12-1.66-9.3-1.55-9.53-1.43c-3.19-.47-6.51-.88-9.76-1.32l-9.85-1.3c-3.33-.41-6.45-.92-9.67-1.38-3.47-.37-5.73-1.18-8.37-1.85l-1.94-.52-.97-.26c-.35-.08-.53-.2-.8-.3l-2.99-1.27c-2.18-.82-3.56-1.74-5.18-2.63l-1.18-.67-1.06-.64-2.12-1.28c-.38-.21-.62-.43-.92-.64l-.86-.64-.86-.64-.43-.32-.36-.31c-.95-.82-1.88-1.67-2.9-2.38-1.04-.75-1.9-1.45-2.8-2.16-.44-.35-.8-.68-1.21-1.02l-.6-.51-.54-.49c-1.47-1.32-2.69-2.53-3.87-3.69l-3.33-3.34-1.63-1.58c-.27-.3-.53-.56-.8-1.17-.06-.15-.13-.46-.11-.67.02-.2.06-.32.1-.43.08-.21.18-.35.28-.49.4-.51.82-.81,1.24-1.17.42-.35.85-.81,1.28-1.21l2.63-2.49c.86-.75,1.83-1.85,2.85-2.99l1.66-1.9,2-2.25.51-.57.48-.67.97-1.34.97-1.34,1.19-1.61,1.2-1.61.6-.81c.24-.29.6-.63.89-.94l3.71-3.82.23-.24.3-.28.61-.55,1.23-1.11,2.47-2.22,1.24-1.11.31-.28c.11-.09.18-.18.38-.28l1.03-.59,4.1-2.36,4.1-2.36,1.03-.59c.1-.05.14-.1.29-.14l.41-.13.82-.26,3.3-1.03,13.13-4.09,12.21-3.95c1-.33,2.07-.65,3.01-.99l2.57-1.04,5.14-2.09,5.13-2.09,4.44-2.25,4.43-2.25,2.21-1.12c.67-.4,1.3-.82,1.95-1.24l7.72-4.97,5.51-4.59.69-.57.34-.29c.11-.09.25-.21.27-.24l.58-.62,1.18-1.23c.38-.41.82-.8,1.17-1.22l1.01-1.25c.68-.83,1.4-1.62,2.04-2.55.64-.88,1.19-1.72,1.72-2.55,2.05-3.32,2.92-5.96,3.19-7.9.03-.25.04-.49.08-.73-.02-.24.03-.47.02-.71,0-.12-.01-.24,0-.35v-.17s0-.03,0-.05c-.02-.06.05-.11-.02-.25-.02-.06-.03-.12-.04-.18v-.09s-.06-.18-.06-.18c-.09-.24-.11-.5-.19-.75-.1-.24-.16-.49-.24-.73-.12-.23-.21-.47-.29-.72-.86-1.88-2.46-4.06-5.21-6.37-2.72-2.3-6.48-4.58-10.83-6.46-4.34-1.9-9.25-3.45-14.33-4.54-5.08-1.09-10.35-1.81-15.42-1.9l-3.82-.07-3.77.19c-1.27,0-2.5.19-3.73.34l-1.86.21c-.31.04-.62.06-.93.11l-.91.18-3.64.68c-1.19.29-2.36.63-3.54.92-1.2.25-2.33.69-3.47,1.08-1.14.41-2.32.71-3.4,1.24l-3.32,1.39c-1.05.56-2.11,1.1-3.17,1.64l-.8.4c-.26.14-.5.31-.76.47l-1.51.93-1.52.91c-.5.31-.96.69-1.44,1.03-3.93,2.63-7.38,5.88-10.55,9.41l-1.18,1.34c-.4.44-.81.87-1.14,1.38-.71.97-1.42,1.93-2.15,2.88-.39.46-.67,1-1,1.51l-.97,1.54-.99,1.52c-.31.55-.6,1.13-.9,1.7l-1.82,3.43c-.61,1.28-1.27,2.58-1.84,3.85-.54,1.27-1.12,2.5-1.64,3.8-.51,1.32-1.06,2.58-1.54,3.93-3.98,10.67-6.87,22.58-9.2,35.12-1.17,6.29-2.2,12.67-3.21,19.35l-3.02,20.08c-3.83,26.62-7.11,53.31-9.66,80.05-2.45,25.8-4.3,51.66-5.51,77.55-1.18,25.89-1.75,51.79-1.74,77.69-.72.02-1.44-.03-2.16,0-.02-26.87.58-53.74,1.88-80.58,1.34-26.84,3.27-53.66,5.92-80.42,2.67-26.76,5.88-53.44,9.83-80.1l3-20.02c1.01-6.52,2.1-12.9,3.34-19.12,2.48-12.42,5.6-24.23,9.92-34.74l1.67-3.87,1.88-3.92,1.86-3.5c.32-.57.59-1.21.93-1.72l1.01-1.59,1-1.6.49-.8c.17-.26.37-.5.56-.75.75-.99,1.49-1.99,2.22-3,.75-.99,1.62-1.87,2.41-2.82.41-.46.79-.95,1.21-1.4l1.32-1.29,1.31-1.3.65-.66c.23-.21.47-.39.7-.59.94-.79,1.88-1.58,2.8-2.39.97-.75,1.99-1.43,2.97-2.17.96-.77,2.04-1.38,3.09-2.02,2.04-1.38,4.31-2.4,6.49-3.58l3.44-1.46.86-.38c.29-.11.59-.2.89-.3l1.78-.61,1.78-.63c.59-.21,1.22-.33,1.83-.5,1.23-.31,2.44-.69,3.68-.96l3.77-.72c.31-.06.62-.13.94-.18l.96-.11,1.92-.23,1.92-.25c.64-.08,1.3-.07,1.95-.12,1.3-.06,2.6-.17,3.9-.2,2.63.08,5.26-.01,7.91.23,10.62.81,21.6,3.61,30.12,7.91,4.28,2.12,7.82,4.66,10.33,7.17,2.52,2.54,3.95,4.88,4.72,7.31.1.31.15.63.26.94.07.18.07.27.08.37.02.1.04.2.07.3.1.22.03.35.07.5,0,.04.02.07.02.12v.23c0,.15,0,.31.02.46.04,1.22-.13,2.46-.47,3.86-.67,2.77-2.3,6.25-5.01,10.03-.68,1-1.43,1.85-2.16,2.75l-1.07,1.35c-.37.45-.83.87-1.23,1.31l-1.24,1.31-.61.66c-.34.31-.85.73-1.27,1.08l-5.28,4.46c-9.18,6.6-20.11,12.13-33.98,17.3l-11.17,3.78-11.97,3.89-3,.97-.75.24-.38.12c-.12.04-.17.09-.26.14l-.96.55-3.84,2.2-3.84,2.2-.96.55c-.31.18-.44.35-.67.52l-1.22,1.03-2.42,2.06-1.2,1.03-.6.52-.3.26-.24.22-3.78,3.57c-.3.29-.66.61-.91.88l-.66.76-1.33,1.52-2.46,2.79c-.86.91-1.69,1.93-2.59,2.66l-2.57,2.31c-.76.66-1.56,1.39-2.28,1.99-.7.56-1.42,1.18-2.11,1.7l-3.97,2.75-1.96,1.38c-.64.46-1.29.79-1.92,1.25-.31.25-.63.47-.89.97-.05.14-.13.32-.08.62.05.27.15.44.24.57.18.26.37.45.55.61.75.61,1.52,1.08,2.27,1.64l4.61,3.36c1.6,1.17,3.29,2.41,5.2,3.73,1.87,1.33,4.21,2.74,6.58,4.28l1.71,1.22c.59.41,1.3.84,1.95,1.26l.99.63c.32.21.77.42,1.15.64l2.37,1.28,2.58,1.33,1.31.67.65.33.79.32,3.2,1.27c.54.21,1.05.43,1.62.63l2.02.52,4.04,1.05,1.01.26c.35.08.63.19,1.08.24l2.46.37c3.3.49,6.53,1,9.93,1.44l10.09,1.38c3.35.46,6.73.91,9.96,1.43,13.1,2,25.59,4.29,37.72,7.03l4.55,1.03,4.5,1.11,4.49,1.11,4.36,1.16,4.15,1.11,2.56.73,5.11,1.5c3.4,1.01,6.79,2.06,10.17,3.15l4.93,1.61c1.59.5,3.31,1.14,4.99,1.73l10.16,3.66,5.02,1.88c1.68.62,3.34,1.25,4.97,1.9,6.62,2.53,12.92,5.25,19.11,8.05,3.01,1.46,6.11,2.85,8.97,4.41,1.44.77,2.95,1.49,4.34,2.29l4.19,2.39c5.44,3.27,10.71,6.65,15.22,10.39l1.75,1.37c.56.47,1.07.96,1.6,1.44,1.05.96,2.15,1.9,3.18,2.87,1.87,2.02,3.95,3.93,5.53,6.04l1.28,1.53c.21.25.45.51.63.76l.47.71c.64.94,1.29,1.86,1.97,2.77.08.11.19.23.24.33l.13.3.27.59c.19.39.39.77.6,1.15.36.92.81,1.9,1.16,2.81.13.46.28.91.43,1.36l.24.67.13.65c.09.43.2.86.31,1.29.1.43.1.84.18,1.25.29,1.66.23,3.24.14,4.86-.35,3.22-1.26,6.71-3.33,10.62-.26.49-.48.97-.76,1.47l-.9,1.49-.44.75-.52.76-1.02,1.52c-1.5,2.03-3.08,4.1-4.94,6.14-7.29,8.23-17.24,16.05-28.02,22.89-5.4,3.44-11.08,6.62-16.87,9.58-5.89,2.99-11.96,5.8-18.09,8.35-12.28,5.13-24.93,9.36-37.82,12.69-6.45,1.67-12.92,3.11-19.51,4.34l-5.1.91-4.92.78c-3.27.49-6.56,1.14-9.8,1.41-12.94,1.67-26.11,2.13-39.34,1.84l-4.96-.1c-1.66-.06-3.32-.19-4.98-.28l-4.98-.29-2.49-.14-2.5-.24-9.98-.95-10-1.28c-13.34-1.89-26.7-4.43-40.05-7.48-20.04-4.65-40.01-10.43-59.99-16.82Z"/>
    <path class="st2" d="M129.99,454.48l.93-3.27c29.5,9.33,59.31,17.4,89.55,22.49,30.2,5.07,60.85,6.89,91.04,3.76l5.65-.65,2.83-.32c.94-.1,1.88-.29,2.83-.44l11.33-1.87c3.87-.69,7.61-1.42,11.35-2.24,3.74-.81,7.47-1.68,11.18-2.64,14.85-3.8,29.43-8.72,43.53-14.77,7.03-3.02,14.03-6.35,20.73-9.91,6.7-3.59,13.25-7.47,19.48-11.71,6.24-4.23,12.2-8.78,17.63-13.71,2.76-2.44,5.29-5.03,7.76-7.64,1.16-1.35,2.42-2.65,3.49-4.03l1.66-2.05,1.54-2.1c3.6-4.92,6.41-10.13,8.22-15.42,1.87-5.29,2.54-10.67,2.12-16.02l-.06-1.01c-.02-.34-.1-.67-.15-1l-.31-2.01c-.07-.67-.32-1.33-.46-2-.17-.67-.31-1.34-.5-2.01l-.68-1.99c-.24-.66-.4-1.34-.72-1.99l-.86-1.97-.42-.99c-.15-.32-.32-.61-.48-.91-2.37-4.84-6.46-9.75-10.69-14.4l-3.32-3.4c-1.14-1.11-2.38-2.14-3.57-3.22l-1.8-1.61c-.61-.53-1.27-1.01-1.9-1.51l-3.84-3.01-4.04-2.82-2.02-1.41-2.11-1.32-4.23-2.65-4.38-2.48-2.19-1.24-2.25-1.17-4.51-2.33-4.62-2.2c-1.54-.74-3.08-1.47-4.66-2.15l-4.72-2.08c-1.58-.68-3.19-1.33-4.79-1.99-3.18-1.35-6.44-2.58-9.68-3.85-6.51-2.47-13.16-4.89-19.76-7.21-3.33-1.2-6.52-2.21-9.87-3.29-3.33-1.06-6.67-2.08-10.02-3.07l-5.03-1.46-2.52-.71-2.94-.8c-4.25-1.16-8.62-2.27-12.98-3.32-8.73-2.11-17.61-3.95-26.69-5.62-4.54-.83-9.16-1.6-13.8-2.34-4.63-.74-9.33-1.45-13.74-2.24l-3.1-.66-1.55-.33c-.52-.11-1.04-.22-1.49-.34l-2.79-.73c-.93-.24-1.88-.49-2.71-.74l-5.09-1.47-2.48-.71-2.34-.7-4.53-1.35-4.5-1.22-8.59-2.24c-5.47-1.38-10.93-2.76-16.39-4.14-.66-.21-1.35-.37-1.94-.89-.15-.13-.24-.42-.11-.6.09-.18.24-.29.38-.4.29-.21.59-.37.9-.51,1.24-.56,2.52-.93,3.78-1.36l7.62-2.67,3.81-1.33c1.27-.44,2.54-.88,3.82-1.42,2.55-.98,5.13-2.12,7.74-3.3,5.41-2.37,10.24-5.3,16.16-8.82,2.88-1.69,6.14-3.75,9.45-5.74l5.95-3.18c.51-.26.95-.53,1.52-.79l1.92-.77,3.83-1.54,3.83-1.54,3.63-1.57,3.63-1.57,1.81-.79,1.63-.84,6.5-3.37,5.92-3.62c.48-.31,1.01-.59,1.46-.92l1.35-.99,2.7-1.97,1.35-.99c.44-.33.94-.66,1.27-.99l2.24-1.99,2.24-1.99c.18-.16.39-.34.54-.49l.4-.42.79-.85,1.59-1.69.8-.84c.26-.29.48-.59.72-.89.94-1.2,1.92-2.36,2.85-3.57.91-1.25,1.77-2.5,2.56-3.76,1.59-2.53,2.93-5.11,3.96-7.7,1.05-2.59,1.72-5.21,2.08-7.8.2-1.3.25-2.59.27-3.89.02-.65-.05-1.29-.06-1.94-.07-.6-.1-1.16-.18-1.75-.13-.59-.26-1.18-.37-1.77l-.53-1.88c-.2-.62-.44-1.23-.65-1.85-.22-.61-.52-1.2-.77-1.8-1.11-2.37-2.54-4.62-4.26-6.73-3.44-4.23-8.06-7.89-13.28-10.89-5.22-3.02-11.07-5.36-17.11-7.17-6.06-1.81-12.38-3.02-18.71-3.69-3.17-.33-6.34-.53-9.5-.5-3.17-.13-6.31.17-9.46.32-6.26.64-12.42,1.84-18.38,3.64-11.85,3.79-22.84,10.07-31.65,18.74-5.14,4.97-9.72,10.82-13.52,17.3-.9,1.69-1.79,3.37-2.69,5.07-.88,1.73-1.77,3.56-2.59,5.35-.79,1.8-1.61,3.59-2.32,5.45-.76,1.83-1.44,3.71-2.12,5.59-5.38,15.09-8.7,31.27-11.52,46.76-.76,4.13-2.01,11.54-3.12,16.75-1.11,5.21-2.07,8.26-2.19,3.8-.15-5.5.78-8.84,1.9-16.12,2.78-17.92,6.11-35.62,11.92-52.23,1.43-4.16,3.1-8.18,4.87-12.15.96-1.96,1.87-4,2.9-5.85l1.5-2.84c.25-.47.49-.96.76-1.42l.85-1.34c4.37-7.25,9.81-13.82,16.15-19.37,6.33-5.56,13.54-10.11,21.29-13.48,7.75-3.38,16.04-5.58,24.5-6.62l3.17-.39,3.2-.17,3.2-.18,3.21.04c4.28-.06,8.57.34,12.84.89,8.53,1.14,16.95,3.29,24.79,6.47,6.87,2.81,13.31,6.48,18.54,11.15,5.24,4.66,9.2,10.3,11.1,16.63.2.79.47,1.6.62,2.38l.23,1.16c.08.38.17.77.18,1.15l.11,1.15c.03.39.03.81.05,1.22.06.82,0,1.64-.01,2.46-.18,3.28-.82,6.56-1.98,9.77-1.14,3.22-2.71,6.37-4.63,9.41-.94,1.53-2,3.01-3.09,4.5l-3.45,4.25-3.8,4.01c-1.58,1.45-3.3,2.94-4.94,4.41-1.83,1.46-3.85,2.89-5.77,4.33l-.73.54-.79.5-1.58,1-3.16,1.99c-4.39,2.57-8.97,5.02-14.16,7.28-2.47,1.17-5.17,2.27-7.81,3.39l-1.99.84-.99.42c-.34.14-.67.28-.92.42l-3.26,1.7-3.26,1.7c-1.02.55-1.89,1.06-2.84,1.6-1.86,1.05-3.76,2.15-5.48,3.07-3.61,1.97-6.84,3.7-10.09,5.32-1.61.76-3.21,1.58-4.84,2.29-1.63.69-3.27,1.42-4.88,2.08-1.6.63-3.21,1.29-4.8,1.89-1.59.57-3.18,1.19-4.77,1.71l-9.5,3.09-4.74,1.55c-1.57.51-3.18.9-4.67,1.71-.18.11-.36.23-.51.4-.17.15-.19.51.01.67.35.32.76.46,1.16.61.81.27,1.64.42,2.47.61l4.95,1.08,9.98,2.12c3.36.72,6.77,1.46,10.29,2.26l5.33,1.24,5.39,1.37,5.68,1.43c1.98.5,3.85,1,5.99,1.49l3.13.74,3.39.68,1.7.34.85.17.91.15,3.67.6c4.9.8,9.88,1.6,14.79,2.45l7.31,1.33,7.22,1.42c9.57,1.95,18.98,4.17,28.21,6.64l3.31.89,2.87.8c1.92.53,3.82,1.1,5.73,1.65,3.81,1.12,7.61,2.29,11.39,3.49,1.87.61,3.73,1.2,5.61,1.83l5.63,1.97c3.75,1.34,7.54,2.66,11.26,4.05,7.48,2.73,14.84,5.63,22.04,8.75,7.23,3.09,14.24,6.51,21,10.24,6.8,3.69,13.21,7.87,19.21,12.45l2.23,1.74c.74.58,1.5,1.14,2.18,1.78l4.2,3.71c1.36,1.27,2.61,2.63,3.92,3.93.63.67,1.34,1.29,1.91,2l1.77,2.11c2.5,2.76,4.4,5.69,6.43,8.55l1.17,2.22c.39.74.81,1.46,1.12,2.27l1.04,2.37c.39.78.57,1.6.87,2.4,1.19,3.2,1.8,6.48,2.2,9.76.35,3.29.2,6.58-.17,9.86-.55,3.27-1.33,6.53-2.54,9.72-.27.8-.66,1.58-.98,2.38-.33.79-.66,1.59-1.08,2.36l-1.17,2.33-1.33,2.29-.67,1.14-.74,1.12-1.47,2.23c-1.09,1.44-2.08,2.93-3.26,4.33-2.22,2.87-4.77,5.56-7.32,8.23-5.25,5.25-11.03,10.13-17.13,14.65-6.13,4.49-12.56,8.66-19.2,12.49-3.33,1.91-6.69,3.74-10.11,5.49l-5.18,2.59-5.23,2.48c-7.01,3.24-14.15,6.19-21.39,8.85-14.48,5.33-29.36,9.53-44.43,12.6-1.88.39-3.77.76-5.7,1.11l-2.88.53-2.84.47-5.68.93-2.84.47c-.95.17-1.89.31-2.84.4l-11.37,1.31-11.43.79c-14.09.68-28.22.39-42.31-.7-14.08-1.04-28.11-3.11-42.05-5.64-27.88-5.06-55.33-12.73-82.54-21.28Z"/>
    <path class="st2" d="M125.33,470.84c.66-2.33,1.33-4.66,1.99-6.98,31.99,10.17,64.56,18.99,97.95,24.13,33.33,5.14,67.59,6.47,101.38,1.35,33.81-4.9,67.15-15.01,97.95-30.82,15.36-7.93,30.11-17.36,43.09-29.07,6.49-5.84,12.46-12.35,17.48-19.61,2.51-3.64,4.69-7.51,6.57-11.54,1.86-4.05,3.24-8.33,4.19-12.73,1.04-4.87,1.4-10.19.86-15.56-.52-5.37-1.93-10.77-4.01-15.85-.56-1.25-1.08-2.52-1.66-3.76-.65-1.22-1.3-2.43-1.94-3.64l-.49-.9-.59-.83-1.17-1.65c-.78-1.1-1.56-2.19-2.33-3.27-.37-.55-.79-1.06-1.22-1.56-.42-.5-.84-1-1.26-1.49-.84-.99-1.68-1.97-2.5-2.94-.79-1-1.75-1.83-2.6-2.73-.88-.88-1.75-1.75-2.6-2.61-.82-.87-1.81-1.71-2.86-2.6-1.05-.89-2.17-1.84-3.32-2.82-1.13-1.01-2.44-1.87-3.68-2.84-1.27-.94-2.55-1.89-3.82-2.84-2.65-1.73-5.18-3.54-7.56-5.05-2.39-1.48-4.49-2.87-6.12-3.98-6.16-3.97-3.42-4.04-2.53-4.49,1.78,1.01,3.59,1.93,5.33,3.03l5.24,3.22c1.74,1.09,3.41,2.3,5.12,3.45.85.59,1.71,1.15,2.54,1.76l2.46,1.89,2.46,1.89,1.23.95c.4.33.79.68,1.18,1.02l4.7,4.1c1.52,1.43,2.96,2.94,4.45,4.41,1.52,1.44,2.85,3.06,4.22,4.65,2.81,3.08,5.24,6.66,7.7,10.15,2.16,3.84,4.12,7.67,5.52,11.79,1.54,4.06,2.43,8.38,3.02,12.72.18,2.19.41,4.38.33,6.58.06,2.2-.21,4.38-.4,6.57-.63,4.33-1.59,8.61-3.09,12.66-1.5,4.04-3.27,7.98-5.43,11.63-1.01,1.88-2.22,3.6-3.35,5.4-.6.87-1.22,1.71-1.83,2.57-.61.86-1.23,1.71-1.89,2.52l-1.95,2.46-2.04,2.37c-1.34,1.6-2.8,3.08-4.21,4.6-11.57,11.91-24.93,21.56-38.91,29.89-28.1,16.43-58.75,27.89-90.25,34.72-7.86,1.72-15.78,3.03-23.72,4.37l-11.98,1.5c-4,.4-8.01.66-12.01.99-16.02,1-32.05.77-47.93-.46-21.7-1.71-43.08-5.13-64-9.87-20.93-4.7-41.45-10.49-61.65-16.83Z"/>
    <path class="st0" d="M165.88,502.85h-1.25c-.08-27.41.57-54.86,1.96-82.28,1.42-27.42,3.42-54.81,6.1-82.09.19-2.06.59-6.58.98-10.92.43-4.34.88-8.5,1.14-9.85.42-2.13.89.5.93,1.99.11,5.42-1.95,20.98-2.61,28.14-2.44,25.75-4.31,51.57-5.49,77.42-1.18,25.85-1.77,51.73-1.77,77.59Z"/>
    <path class="st2" d="M325.74,144.6c5.37,3.4,9.72,7.48,12.33,11.9,1.33,2.21,2.28,4.49,2.87,6.9.3,1.18.45,2.12.5,3.12.02,1.21.05,2.42-.11,3.63-.23,2.43-.92,4.91-1.94,7.47-1.07,2.56-2.47,5.18-4.27,7.79-.87,1.29-1.87,2.66-2.91,3.86-1.04,1.22-1.97,2.51-3.18,3.66l-1.71,1.78-.43.45-.22.23-.35.3-1.41,1.21-2.83,2.42c-.5.41-.89.8-1.47,1.22l-1.81,1.24-3.48,2.38-1.74,1.19c-.58.4-1.28.74-1.91,1.11l-3.89,2.18-1.95,1.09c-.64.37-1.28.73-2.05,1.06l-8.78,4.05-10.07,3.81c-1.63.63-3.52,1.27-5.29,1.91l-5.4,1.91-2.7.96c-.51.15-.73.34-1.07.51l-.95.52-3.81,2.08-1.91,1.04c-.6.34-1.37.71-1.76,1.02l-2.78,1.95-5.19,3.7c-3.4,2.39-5.84,4.35-8.4,6.21-1.22.85-2.43,1.76-3.66,2.56l-3.71,2.26-3.49,1.98-3.37,1.74-6.56,2.92-3.26,1.47c-1.07.49-2.16.86-3.22,1.39-.26.13-.53.28-.78.46-.24.2-.53.35-.64.82-.04.28.14.5.25.64.13.14.27.24.41.34.28.19.57.33.86.46l3.48,1.39c4.65,1.86,9.23,3.74,14.54,5.95l4.14,1.71,2.18.9,2.13.98c.68.32,1.5.67,2.26,1.01.8.34,1.49.68,2.4,1.02l5.32,2.11,1.38.54.69.27.79.26,3.18,1.04c.55.17,1.01.36,1.64.51l1.88.45,3.76.89c5.48,1.03,11.6,1.85,17.54,2.74,12,1.72,23.45,3.74,34.61,6.06,5.57,1.17,11.07,2.41,16.51,3.77l4.09,1.02,3.99,1.06,3.92,1.05,2.71.77c3.62,1.02,7.22,2.1,10.81,3.2,3.6,1.1,7.19,2.26,10.63,3.4,7.04,2.44,14.33,5.04,21.35,7.68,14.04,5.33,27.61,11.08,39.85,18.07l2.31,1.3c.76.44,1.48.91,2.22,1.37l4.41,2.76c2.78,1.96,5.67,3.84,8.23,5.96,2.73,1.99,5.06,4.26,7.55,6.4,2.21,2.32,4.6,4.52,6.51,6.99.54.63,1.07,1.26,1.6,1.88l.4.47.32.46.64.91c.43.6.86,1.2,1.29,1.8l.65.89c.22.3.46.59.57.87.28.57.57,1.13.87,1.69l.46.83c.14.3.27.63.41.94l.83,1.88c.3.62.43,1.25.67,1.86.94,2.47,1.34,4.89,1.69,7.27.04,1.2.24,2.38.15,3.57-.03.59.03,1.18-.04,1.78-.07.6-.13,1.19-.18,1.79-.35,2.39-.83,4.8-1.77,7.25-.37,1.23-.99,2.46-1.49,3.7-.27.62-.63,1.24-.94,1.86-.32.62-.61,1.25-1.01,1.87l-1.11,1.87c-.38.62-.83,1.24-1.24,1.86-.79,1.25-1.79,2.47-2.7,3.72-1.98,2.45-4.08,4.91-6.48,7.29-4.66,4.74-10.01,9.34-15.74,13.69-5.71,4.37-11.84,8.48-18.14,12.28-6.28,3.81-12.79,7.22-19.41,10.39-6.59,3.14-13.19,5.92-19.7,8.29-6.52,2.45-17.55,5.75-13.37,3.03,3.48-2.32,8.07-3.55,13.83-5.87,8.59-3.4,16.96-7.27,25.17-11.48,8.06-4.18,15.87-8.78,23.17-13.83,3.66-2.51,7.19-5.14,10.52-7.87,3.34-2.73,6.55-5.54,9.44-8.46,2.91-2.91,5.6-5.9,7.95-8.94,2.31-3.04,4.29-6.11,5.84-9.13,1.54-3.02,2.73-5.98,3.35-8.83.65-2.85.87-5.58.69-8.33-.05-.69-.04-1.38-.21-2.07l-.16-1.04c-.05-.35-.08-.7-.2-1.05-.19-.7-.36-1.41-.52-2.12-.25-.71-.51-1.43-.74-2.16-.18-.73-.61-1.46-.9-2.19l-.47-1.11c-.15-.38-.34-.64-.51-.97l-.99-1.93-1.53-2.08-1.48-2.12-1.87-2.21-1.86-2.23c-.65-.73-1.39-1.41-2.07-2.13l-2.08-2.13c-.69-.71-1.51-1.35-2.26-2.04l-2.28-2.03-.57-.51-.62-.48-1.24-.96c-6.51-5.18-13.91-9.84-21.83-14.07-10.1-5.34-20.99-10.01-32.31-14.36-2.81-1.1-5.72-2.14-8.58-3.21l-8.72-3.12c-5.85-2.11-11.31-3.86-17.23-5.68-2.91-.9-5.83-1.76-8.76-2.61l-4.4-1.24-6.62-1.76c-9.3-2.41-18.81-4.57-28.55-6.47-2.46-.46-4.88-.94-7.37-1.38l-7.47-1.31-7.63-1.21-7.77-1.13c-5.18-.75-10.51-1.45-15.56-2.25l-3.83-.58c-.34-.04-.6-.11-.86-.18l-.81-.2-1.61-.4-3.22-.79-.81-.2c-.28-.06-.54-.13-.74-.22l-1.32-.47c-3.71-1.22-6.64-2.59-9.44-3.84l-2.08-.94c-.68-.31-1.23-.62-1.85-.93-.59-.31-1.24-.62-1.79-.92l-1.62-.9c-1.07-.63-2.21-1.11-3.32-1.67l-3.11-1.55-5.58-2.86c-3.5-1.81-6.71-3.46-10-5.08-.41-.2-.82-.41-1.22-.72-.2-.17-.41-.33-.57-.67-.09-.19-.08-.46,0-.59.06-.15.14-.25.22-.35.66-.68,1.42-.98,2.15-1.35,1.47-.67,2.96-1.54,4.47-2.3l4.52-2.36c.75-.35,1.54-.88,2.32-1.35l1.18-.72c.4-.25.82-.54,1.23-.81.84-.57,1.62-1.06,2.52-1.7l2.71-1.92c.9-.65,1.77-1.45,2.66-2.17l1.33-1.11,1.47-1.3,1.47-1.3.74-.65.38-.33.47-.38,3.77-3.01.94-.75,1.13-.86,2.27-1.72,2.28-1.72.57-.43c.19-.14.53-.3.79-.45l1.66-.92,6.62-3.66c.22-.16.68-.29,1.08-.43l1.22-.41,2.44-.83,4.88-1.65,4.84-1.65,4.55-1.63,4.55-1.63c1.5-.54,3.11-1.07,4.33-1.66,2.88-1.27,5.46-2.41,7.82-3.45.58-.26,1.18-.51,1.71-.77.5-.27.98-.53,1.45-.78.95-.51,1.85-1,2.72-1.47,1.74-.94,3.35-1.8,4.89-2.62,1.41-.88,2.67-1.76,3.97-2.6,1.29-.85,2.57-1.69,3.9-2.56l.5-.33.39-.32c.26-.21.52-.43.78-.65.53-.43,1.07-.88,1.64-1.34.56-.46,1.15-.94,1.75-1.44.3-.25.61-.5.93-.76.29-.24.73-.58.84-.72.75-.73,1.56-1.52,2.47-2.41.71-.64,1.29-1.34,1.89-2.04.61-.7,1.22-1.4,1.83-2.11,1.2-1.52,2.27-3.05,3.22-4.57,1.86-3.06,3.22-6.09,3.88-8.91.34-1.41.53-2.77.6-4.11l.03-1c-.02-.33-.03-.67-.03-1-.07-.58-.02-.99-.19-1.56-.07-.28-.08-.52-.16-.84-.09-.33-.18-.66-.26-.99-.06-.34-.2-.65-.3-.97-.12-.32-.19-.65-.33-.96-.49-1.25-1.08-2.48-1.78-3.69-2-3.5-5.39-6.91-7.93-9.3-1.26-1.2-2.25-2.17-2.67-2.84-.41-.68-.23-1.08.8-1.07Z"/>
  </g>
</svg>